<svg width="40" height="40" viewBox="0 0 40 40" fill="none" xmlns="http://www.w3.org/2000/svg">
<path d="M25.3328 20.1313C25.3328 21.4588 25.2111 22.6352 24.9677 23.6604C24.7317 24.6855 24.3851 25.5521 23.9278 26.2602C23.4779 26.9608 22.9211 27.4955 22.2573 27.8643C21.6009 28.2257 20.8523 28.4064 20.0115 28.4064C19.215 28.4064 18.5033 28.2331 17.8764 27.8864C17.2568 27.5324 16.7332 27.0198 16.3054 26.3487C15.8777 25.6775 15.5531 24.8552 15.3319 23.8816C15.1106 22.9007 15 21.7797 15 20.5185C15 19.1319 15.1143 17.9076 15.343 16.8456C15.579 15.7835 15.9219 14.8948 16.3718 14.1794C16.8217 13.4566 17.3785 12.9145 18.0423 12.5531C18.7135 12.1844 19.4805 12 20.3434 12C23.6697 12 25.3328 14.7104 25.3328 20.1313ZM23.4742 20.3083C23.4742 15.7946 22.4011 13.5378 20.2549 13.5378C17.9907 13.5378 16.8586 15.8352 16.8586 20.43C16.8586 24.715 17.9686 26.8576 20.1885 26.8576C22.379 26.8576 23.4742 24.6745 23.4742 20.3083Z" fill="black"/>
</svg>
