<svg width="40" height="40" viewBox="0 0 40 40" fill="none" xmlns="http://www.w3.org/2000/svg">
<path d="M22.3348 16.4252C22.3348 15.9384 22.2573 15.5143 22.1024 15.1529C21.9549 14.7916 21.7484 14.4929 21.4829 14.2568C21.2248 14.0135 20.9187 13.8328 20.5647 13.7148C20.2107 13.5968 19.8271 13.5378 19.4141 13.5378C19.0601 13.5378 18.7135 13.5857 18.3742 13.6816C18.0349 13.7775 17.7031 13.9102 17.3785 14.0798C17.0614 14.2495 16.7516 14.4523 16.4493 14.6883C16.1542 14.9243 15.8777 15.1861 15.6195 15.4738V13.5267C16.1284 13.0325 16.6963 12.6564 17.3232 12.3983C17.9575 12.1328 18.7282 12 19.6354 12C20.2844 12 20.8855 12.0959 21.4387 12.2876C21.9918 12.472 22.4712 12.7449 22.8768 13.1063C23.2825 13.4677 23.5996 13.9139 23.8283 14.4449C24.0643 14.9759 24.1823 15.5844 24.1823 16.2703C24.1823 16.8972 24.1085 17.4651 23.961 17.974C23.8209 18.4829 23.6033 18.9623 23.3083 19.4122C23.0207 19.8621 22.6556 20.2935 22.2131 20.7066C21.7705 21.1196 21.2506 21.54 20.6532 21.9677C19.9083 22.4988 19.2924 22.9523 18.8057 23.3285C18.3263 23.7046 17.9428 24.0586 17.6551 24.3905C17.3749 24.7151 17.1757 25.0433 17.0577 25.3751C16.9471 25.6997 16.8918 26.0758 16.8918 26.5036H24.7907V28.1298H15V27.3444C15 26.6658 15.0738 26.0684 15.2213 25.5521C15.3688 25.0359 15.6122 24.5454 15.9514 24.0808C16.2907 23.6161 16.7332 23.1515 17.279 22.6868C17.8321 22.2222 18.507 21.6985 19.3035 21.1159C19.8788 20.7029 20.3582 20.3083 20.7417 19.9322C21.1326 19.556 21.446 19.1799 21.682 18.8037C21.918 18.4276 22.084 18.0478 22.1799 17.6642C22.2831 17.2734 22.3348 16.8603 22.3348 16.4252Z" fill="black"/>
</svg>
