<svg width="40" height="40" viewBox="0 0 40 40" fill="none" xmlns="http://www.w3.org/2000/svg">
<path d="M24.1823 23.6383C24.1823 24.3537 24.0458 25.0064 23.7729 25.5964C23.5074 26.1791 23.1276 26.6806 22.6335 27.101C22.1467 27.514 21.5603 27.8348 20.8744 28.0634C20.1885 28.2921 19.4326 28.4064 18.6065 28.4064C17.0946 28.4064 15.8924 28.1188 15 27.5435V25.5964C16.0694 26.4372 17.2937 26.8576 18.6729 26.8576C19.2261 26.8576 19.7239 26.7875 20.1664 26.6474C20.6163 26.5073 20.9998 26.3044 21.317 26.0389C21.6415 25.7734 21.8885 25.4526 22.0582 25.0764C22.2352 24.7003 22.3237 24.2762 22.3237 23.8042C22.3237 21.7317 20.8486 20.6955 17.8985 20.6955H16.582V19.1577H17.8321C20.443 19.1577 21.7484 18.1842 21.7484 16.2371C21.7484 14.4375 20.7527 13.5378 18.7614 13.5378C17.6404 13.5378 16.5894 13.9139 15.6085 14.6662V12.9072C16.6189 12.3024 17.8211 12 19.215 12C19.8788 12 20.4799 12.0922 21.0183 12.2766C21.5567 12.461 22.0176 12.7191 22.4011 13.051C22.7846 13.3829 23.0797 13.7811 23.2862 14.2458C23.5001 14.7104 23.607 15.223 23.607 15.7835C23.607 17.8708 22.5523 19.2131 20.443 19.8105V19.8547C20.9814 19.9137 21.4792 20.0465 21.9365 20.253C22.3938 20.4521 22.7883 20.7139 23.1202 21.0385C23.4521 21.363 23.7103 21.7465 23.8946 22.189C24.0864 22.6241 24.1823 23.1072 24.1823 23.6383Z" fill="black"/>
</svg>
