<svg width="40" height="40" viewBox="0 0 40 40" fill="none" xmlns="http://www.w3.org/2000/svg">
<path d="M23.2486 12V22.4766H25.2842V24.1361H23.2486V27.8643H21.4564V24.1361H14V22.5651C14.6933 21.7834 15.3939 20.9499 16.102 20.0649C16.81 19.1725 17.4848 18.269 18.1265 17.3545C18.7755 16.4399 19.3729 15.5291 19.9187 14.6219C20.4718 13.7074 20.9365 12.8334 21.3126 12H23.2486ZM16.0467 22.4766H21.4564V14.7104C20.9033 15.6766 20.3797 16.5395 19.8855 17.2992C19.3914 18.0588 18.9193 18.7484 18.4694 19.3679C18.0269 19.9875 17.6028 20.548 17.1972 21.0495C16.7916 21.551 16.408 22.0267 16.0467 22.4766Z" fill="black"/>
</svg>
