<svg width="40" height="40" viewBox="0 0 40 40" fill="none" xmlns="http://www.w3.org/2000/svg">
<path d="M24.9057 23.0187C24.9057 23.7931 24.7729 24.4938 24.5074 25.1207C24.2419 25.7476 23.8621 26.286 23.3679 26.7359C22.8812 27.1858 22.2911 27.5324 21.5979 27.7758C20.9046 28.0192 20.1339 28.1409 19.2857 28.1409C17.8106 28.1409 16.7154 27.9196 16 27.4771V25.5521C17.0768 26.2454 18.1794 26.5921 19.3078 26.5921C19.8831 26.5921 20.3994 26.5073 20.8566 26.3376C21.3213 26.168 21.7159 25.932 22.0404 25.6296C22.3649 25.3272 22.612 24.9621 22.7816 24.5344C22.9586 24.1066 23.0471 23.6383 23.0471 23.1294C23.0471 22.0968 22.7005 21.2892 22.0072 20.7066C21.3139 20.1165 20.3072 19.8215 18.987 19.8215C18.7731 19.8215 18.5482 19.8252 18.3122 19.8326C18.0762 19.84 17.8401 19.851 17.6041 19.8658C17.3681 19.8732 17.1358 19.8842 16.9072 19.899C16.6859 19.9137 16.4831 19.9322 16.2987 19.9543L16.8408 12H24.1755V13.6373H18.4117L18.0909 18.2948C18.3269 18.2801 18.5777 18.269 18.8432 18.2616C19.1087 18.2469 19.3447 18.2395 19.5512 18.2395C20.392 18.2395 21.1443 18.3502 21.8081 18.5714C22.4718 18.7927 23.0324 19.1098 23.4896 19.5228C23.9543 19.9285 24.3046 20.43 24.5406 21.0274C24.784 21.6174 24.9057 22.2812 24.9057 23.0187Z" fill="black"/>
</svg>
