<svg width="40" height="40" viewBox="0 0 40 40" fill="none" xmlns="http://www.w3.org/2000/svg">
<path d="M25.0784 23.0962C25.0784 23.8706 24.953 24.5823 24.7022 25.2313C24.4515 25.8804 24.1048 26.4409 23.6623 26.9129C23.2198 27.3849 22.6925 27.7537 22.0803 28.0192C21.4682 28.2773 20.8044 28.4064 20.089 28.4064C19.2924 28.4064 18.577 28.2405 17.9428 27.9086C17.3159 27.5767 16.7811 27.101 16.3386 26.4814C15.9035 25.8545 15.5716 25.0912 15.343 24.1914C15.1143 23.2916 15 22.2775 15 21.1491C15 19.7699 15.1512 18.5198 15.4536 17.3987C15.7633 16.2703 16.1985 15.3078 16.759 14.5113C17.3269 13.7074 18.0091 13.0879 18.8057 12.6527C19.6022 12.2176 20.4909 12 21.4718 12C22.5634 12 23.4411 12.1512 24.1048 12.4536V14.1683C23.2862 13.748 22.4233 13.5378 21.5161 13.5378C20.8081 13.5378 20.1701 13.6963 19.6022 14.0135C19.0343 14.3306 18.5475 14.7805 18.1419 15.3631C17.7362 15.9384 17.4228 16.6354 17.2015 17.454C16.9876 18.2727 16.8807 19.1836 16.8807 20.1866H16.925C17.6551 18.8664 18.861 18.2063 20.5426 18.2063C21.2358 18.2063 21.859 18.3243 22.4122 18.5603C22.9727 18.7964 23.4484 19.1319 23.8393 19.5671C24.2376 19.9948 24.5437 20.5074 24.7575 21.1048C24.9714 21.7022 25.0784 22.366 25.0784 23.0962ZM23.2198 23.3285C23.2198 22.7753 23.1497 22.2775 23.0096 21.835C22.8695 21.3925 22.6666 21.0163 22.4011 20.7066C22.143 20.3968 21.8222 20.1608 21.4387 19.9985C21.0551 19.8289 20.62 19.7441 20.1332 19.7441C19.6833 19.7441 19.2666 19.8289 18.8831 19.9985C18.4996 20.1682 18.1677 20.4005 17.8874 20.6955C17.6072 20.9831 17.3859 21.3224 17.2237 21.7133C17.0688 22.0968 16.9913 22.5061 16.9913 22.9413C16.9913 23.4871 17.0688 23.9996 17.2237 24.479C17.3785 24.9511 17.5961 25.3641 17.8764 25.7181C18.1566 26.0721 18.4885 26.3524 18.872 26.5589C19.2629 26.758 19.6944 26.8576 20.1664 26.8576C20.6237 26.8576 21.0404 26.7728 21.4165 26.6031C21.7927 26.4261 22.1135 26.1827 22.379 25.873C22.6445 25.5632 22.851 25.1944 22.9985 24.7667C23.146 24.3315 23.2198 23.8521 23.2198 23.3285Z" fill="black"/>
</svg>
