<svg width="40" height="40" viewBox="0 0 40 40" fill="none" xmlns="http://www.w3.org/2000/svg">
<path d="M25.0894 13.051C24.8461 13.4714 24.551 13.995 24.2044 14.6219C23.8651 15.2488 23.5037 15.9532 23.1202 16.735C22.7367 17.5167 22.3458 18.3575 21.9476 19.2573C21.5493 20.1571 21.1768 21.0864 20.8302 22.0452C20.4835 23.004 20.1775 23.9775 19.912 24.9658C19.6538 25.9467 19.4658 26.9129 19.3478 27.8643H17.4007C17.5334 26.9203 17.7362 25.9578 18.0091 24.9769C18.2894 23.9886 18.6028 23.0224 18.9495 22.0784C19.3035 21.127 19.676 20.2124 20.0668 19.3348C20.4577 18.4571 20.8376 17.6495 21.2063 16.912C21.5751 16.1744 21.9107 15.5254 22.2131 14.9649C22.5228 14.397 22.7699 13.9545 22.9543 13.6373H15V12H25.0894V13.051Z" fill="black"/>
</svg>
