<svg width="40" height="40" viewBox="0 0 40 40" fill="none" xmlns="http://www.w3.org/2000/svg">
<path d="M15 23.7046C15 23.2842 15.0664 22.8638 15.1991 22.4435C15.3319 22.0157 15.52 21.6174 15.7633 21.2487C16.0141 20.8799 16.3202 20.5443 16.6816 20.2419C17.0503 19.9395 17.467 19.6998 17.9317 19.5228C17.2458 19.1393 16.7 18.6489 16.2944 18.0514C15.8887 17.4467 15.6859 16.7792 15.6859 16.0491C15.6859 15.4664 15.7965 14.928 16.0178 14.4339C16.2464 13.9397 16.5599 13.5119 16.9581 13.1505C17.3564 12.7892 17.8284 12.5089 18.3742 12.3098C18.92 12.1033 19.51 12 20.1443 12C20.7859 12 21.3797 12.1033 21.9254 12.3098C22.4712 12.5163 22.9432 12.8002 23.3415 13.1616C23.7398 13.523 24.0495 13.9508 24.2708 14.4449C24.492 14.9391 24.6027 15.4738 24.6027 16.0491C24.6027 16.7792 24.3998 17.4467 23.9942 18.0514C23.5886 18.6489 23.0502 19.1393 22.379 19.5228C22.8363 19.6998 23.2456 19.9395 23.607 20.2419C23.9684 20.5443 24.2708 20.8799 24.5142 21.2487C24.7649 21.6174 24.9567 22.0157 25.0894 22.4435C25.2222 22.8638 25.2886 23.2842 25.2886 23.7046C25.2886 24.3979 25.1632 25.0322 24.9124 25.6075C24.6617 26.1827 24.3077 26.6769 23.8504 27.0899C23.4005 27.4955 22.8584 27.8127 22.2241 28.0413C21.5972 28.27 20.9039 28.3843 20.1443 28.3843C19.392 28.3843 18.7024 28.27 18.0755 28.0413C17.4486 27.8127 16.9065 27.4955 16.4493 27.0899C15.992 26.6769 15.6343 26.1827 15.3761 25.6075C15.1254 25.0322 15 24.3979 15 23.7046ZM16.9692 23.5498C16.9692 24.0439 17.043 24.4901 17.1905 24.8884C17.3454 25.2866 17.5592 25.6259 17.8321 25.9062C18.1124 26.1864 18.448 26.404 18.8389 26.5589C19.2371 26.7064 19.676 26.7801 20.1553 26.7801C20.62 26.7801 21.0478 26.7027 21.4387 26.5478C21.8295 26.3929 22.1651 26.1754 22.4454 25.8951C22.733 25.6148 22.9543 25.2756 23.1092 24.8773C23.2714 24.479 23.3525 24.0365 23.3525 23.5498C23.3525 23.1072 23.2751 22.6942 23.1202 22.3107C22.9727 21.9198 22.7588 21.5769 22.4786 21.2818C22.1983 20.9868 21.8627 20.7545 21.4718 20.5849C21.081 20.4152 20.6421 20.3304 20.1553 20.3304C19.6981 20.3304 19.274 20.4116 18.8831 20.5738C18.4996 20.7287 18.164 20.95 17.8764 21.2376C17.5961 21.5178 17.3749 21.8571 17.2126 22.2554C17.0503 22.6463 16.9692 23.0777 16.9692 23.5498ZM17.5334 16.1929C17.5334 16.569 17.5998 16.9193 17.7326 17.2439C17.8727 17.561 18.0608 17.8413 18.2968 18.0846C18.5402 18.3206 18.8204 18.5087 19.1376 18.6489C19.4547 18.7816 19.794 18.848 20.1553 18.848C20.5167 18.848 20.856 18.7779 21.1731 18.6378C21.4977 18.4977 21.7779 18.3096 22.0139 18.0736C22.2499 17.8302 22.438 17.5499 22.5781 17.2328C22.7183 16.9083 22.7883 16.5616 22.7883 16.1929C22.7883 15.8094 22.7183 15.4553 22.5781 15.1308C22.4454 14.8063 22.261 14.526 22.025 14.29C21.789 14.054 21.5087 13.8696 21.1842 13.7369C20.8671 13.5968 20.5241 13.5267 20.1553 13.5267C19.7645 13.5267 19.4068 13.5968 19.0822 13.7369C18.7651 13.877 18.4885 14.0688 18.2525 14.3122C18.0239 14.5482 17.8469 14.8284 17.7215 15.1529C17.5961 15.4775 17.5334 15.8241 17.5334 16.1929Z" fill="black"/>
</svg>
