<svg width="40" height="40" viewBox="0 0 40 40" fill="none" xmlns="http://www.w3.org/2000/svg">
<path d="M25.0673 19.2463C25.0673 20.6992 24.9235 21.9936 24.6359 23.1294C24.3482 24.2578 23.9278 25.2166 23.3747 26.0057C22.8215 26.7875 22.1467 27.3849 21.3501 27.7979C20.5536 28.2036 19.6465 28.4064 18.6287 28.4064C17.5814 28.4064 16.6594 28.222 15.8629 27.8532V26.1164C16.7406 26.6105 17.6772 26.8576 18.6729 26.8576C19.3883 26.8576 20.0263 26.7101 20.5868 26.4151C21.1547 26.12 21.6341 25.6923 22.025 25.1318C22.4159 24.5639 22.7146 23.8669 22.9211 23.0409C23.1276 22.2148 23.2309 21.2671 23.2309 20.1977H23.1866C22.5081 21.5621 21.328 22.2443 19.6465 22.2443C18.9679 22.2443 18.3447 22.1263 17.7768 21.8903C17.2089 21.6469 16.7184 21.3077 16.3054 20.8725C15.8924 20.43 15.5716 19.9063 15.343 19.3016C15.1143 18.6968 15 18.0293 15 17.2992C15 16.5174 15.1254 15.802 15.3761 15.1529C15.6343 14.5039 15.9883 13.9471 16.4382 13.4824C16.8955 13.0104 17.4339 12.6453 18.0534 12.3872C18.6803 12.1291 19.3625 12 20.1 12C20.8966 12 21.6009 12.1623 22.2131 12.4868C22.8326 12.8039 23.3525 13.2722 23.7729 13.8918C24.1933 14.5039 24.5142 15.2599 24.7354 16.1597C24.9567 17.0595 25.0673 18.0883 25.0673 19.2463ZM23.1092 17.62C23.1092 17.0078 23.028 16.451 22.8658 15.9495C22.7109 15.448 22.4933 15.0202 22.2131 14.6662C21.9328 14.3048 21.5972 14.0282 21.2063 13.8365C20.8228 13.6373 20.4024 13.5378 19.9452 13.5378C19.51 13.5378 19.1044 13.6263 18.7282 13.8033C18.3521 13.9729 18.0239 14.2163 17.7436 14.5334C17.4707 14.8432 17.2532 15.2156 17.0909 15.6508C16.936 16.0786 16.8586 16.5469 16.8586 17.0558C16.8586 17.6163 16.9323 18.1178 17.0798 18.5603C17.2347 19.0029 17.4523 19.379 17.7326 19.6888C18.0128 19.9912 18.3484 20.2235 18.7393 20.3857C19.1376 20.548 19.5764 20.6291 20.0558 20.6291C20.4762 20.6291 20.8708 20.5517 21.2395 20.3968C21.6157 20.2345 21.9402 20.0207 22.2131 19.7551C22.4933 19.4823 22.7109 19.1651 22.8658 18.8037C23.028 18.435 23.1092 18.0404 23.1092 17.62Z" fill="black"/>
</svg>
