<svg width="24" height="24" viewBox="0 0 24 24" fill="none" xmlns="http://www.w3.org/2000/svg">
<path fill-rule="evenodd" clip-rule="evenodd" d="M12 4.76733C12.2761 4.76733 12.5 4.99119 12.5 5.26733V20.6945C12.5 20.9706 12.2761 21.1945 12 21.1945C11.7239 21.1945 11.5 20.9706 11.5 20.6945V5.26733C11.5 4.99119 11.7239 4.76733 12 4.76733Z" fill="black"/>
<path fill-rule="evenodd" clip-rule="evenodd" d="M20.5 19.1575C20.5 19.4336 20.2761 19.6575 20 19.6575L4 19.6575C3.72386 19.6575 3.5 19.4336 3.5 19.1575C3.5 18.8813 3.72386 18.6575 4 18.6575L20 18.6575C20.2761 18.6575 20.5 18.8813 20.5 19.1575Z" fill="black"/>
<path fill-rule="evenodd" clip-rule="evenodd" d="M6 4.19458C6.27614 4.19458 6.5 4.41844 6.5 4.69458C6.5 7.0766 6.7977 10.64 7.67909 13.5908C8.12038 15.0682 8.69723 16.3547 9.42714 17.2623C10.1491 18.1601 10.9928 18.6575 12 18.6575C12.2761 18.6575 12.5 18.8814 12.5 19.1575C12.5 19.4337 12.2761 19.6575 12 19.6575C10.6072 19.6575 9.50087 18.9497 8.64786 17.889C7.80277 16.8381 7.17962 15.4127 6.72091 13.877C5.8023 10.8016 5.5 7.13355 5.5 4.69458C5.5 4.41844 5.72386 4.19458 6 4.19458Z" fill="black"/>
<path fill-rule="evenodd" clip-rule="evenodd" d="M18 4.19458C17.7239 4.19458 17.5 4.41844 17.5 4.69458C17.5 7.0766 17.2023 10.64 16.3209 13.5908C15.8796 15.0682 15.3028 16.3547 14.5729 17.2623C13.8509 18.1601 13.0072 18.6575 12 18.6575C11.7239 18.6575 11.5 18.8814 11.5 19.1575C11.5 19.4337 11.7239 19.6575 12 19.6575C13.3928 19.6575 14.4991 18.9497 15.3521 17.889C16.1972 16.8381 16.8204 15.4127 17.2791 13.877C18.1977 10.8016 18.5 7.13355 18.5 4.69458C18.5 4.41844 18.2761 4.19458 18 4.19458Z" fill="black"/>
<path fill-rule="evenodd" clip-rule="evenodd" d="M12 4L13.3471 5.29882C13.5458 5.49049 13.5516 5.80702 13.3599 6.00581C13.1683 6.2046 12.8517 6.21037 12.6529 6.0187L12 5.38913L11.3471 6.0187C11.1483 6.21037 10.8317 6.2046 10.6401 6.00581C10.4484 5.80702 10.4542 5.49049 10.6529 5.29882L12 4Z" fill="black"/>
<path fill-rule="evenodd" clip-rule="evenodd" d="M20.7205 19.1576L19.3472 20.4817C19.1484 20.6734 18.8318 20.6676 18.6402 20.4688C18.4485 20.27 18.4543 19.9535 18.6531 19.7618L19.2797 19.1576L18.6531 18.5533C18.4543 18.3616 18.4485 18.0451 18.6402 17.8463C18.8318 17.6475 19.1484 17.6418 19.3472 17.8334L20.7205 19.1576Z" fill="black"/>
</svg>
