<svg width="40" height="40" viewBox="0 0 40 40" fill="none" xmlns="http://www.w3.org/2000/svg">
<path d="M5.66939 24.9026H4.5201V23.7342H4.49207C3.99217 24.63 3.25634 25.0778 2.28458 25.0778C1.56977 25.0778 1.00914 24.8807 0.60268 24.4864C0.200893 24.092 0 23.5687 0 22.9164C0 21.5193 0.789557 20.7063 2.36867 20.4775L4.5201 20.1635C4.5201 18.893 4.02721 18.2577 3.04143 18.2577C2.17712 18.2577 1.39691 18.5644 0.70079 19.1777V17.951C1.40625 17.4837 2.21917 17.25 3.13954 17.25C4.82611 17.25 5.66939 18.1798 5.66939 20.0394V24.9026ZM4.5201 21.1201L2.78915 21.3684C2.25654 21.4463 1.85476 21.585 1.58379 21.7846C1.31281 21.9793 1.17733 22.3274 1.17733 22.8288C1.17733 23.1939 1.30113 23.4933 1.54875 23.7269C1.80103 23.9557 2.13507 24.0701 2.55088 24.0701C3.12085 24.0701 3.59038 23.8632 3.95946 23.4495C4.33322 23.0308 4.5201 22.5026 4.5201 21.8649V21.1201Z" fill="black"/>
<path d="M11.8155 18.6374C11.6146 18.4767 11.3249 18.3964 10.9465 18.3964C10.4559 18.3964 10.0448 18.6374 9.7131 19.1193C9.38606 19.6013 9.22255 20.2585 9.22255 21.0909V24.9026H8.07325V17.4252H9.22255V18.966H9.25058C9.4141 18.4402 9.66404 18.0313 10.0004 17.7392C10.3368 17.4423 10.7129 17.2938 11.1287 17.2938C11.4277 17.2938 11.6566 17.3279 11.8155 17.396V18.6374Z" fill="black"/>
<path d="M18.1928 24.5594C17.6415 24.905 16.9874 25.0778 16.2306 25.0778C15.2074 25.0778 14.3805 24.7322 13.7498 24.0409C13.1238 23.3448 12.8107 22.4442 12.8107 21.3392C12.8107 20.1075 13.1495 19.1193 13.8269 18.3745C14.5043 17.6248 15.4083 17.25 16.5389 17.25C17.1697 17.25 17.7256 17.3717 18.2068 17.6151V18.8419C17.6742 18.4524 17.1042 18.2577 16.4969 18.2577C15.7634 18.2577 15.1607 18.5327 14.6889 19.0828C14.2217 19.628 13.9881 20.3461 13.9881 21.2369C13.9881 22.1132 14.2076 22.8044 14.6468 23.3107C15.0906 23.817 15.684 24.0701 16.4268 24.0701C17.0529 24.0701 17.6415 23.8535 18.1928 23.4203V24.5594Z" fill="black"/>
<path d="M25.0607 24.5594C24.5094 24.905 23.8553 25.0778 23.0985 25.0778C22.0753 25.0778 21.2484 24.7322 20.6177 24.0409C19.9916 23.3448 19.6786 22.4442 19.6786 21.3392C19.6786 20.1075 20.0173 19.1193 20.6948 18.3745C21.3722 17.6248 22.2762 17.25 23.4068 17.25C24.0375 17.25 24.5935 17.3717 25.0747 17.6151V18.8419C24.5421 18.4524 23.9721 18.2577 23.3648 18.2577C22.6313 18.2577 22.0286 18.5327 21.5567 19.0828C21.0896 19.628 20.856 20.3461 20.856 21.2369C20.856 22.1132 21.0755 22.8044 21.5147 23.3107C21.9585 23.817 22.5519 24.0701 23.2947 24.0701C23.9207 24.0701 24.5094 23.8535 25.0607 23.4203V24.5594Z" fill="black"/>
<path d="M30.0365 25.0778C28.9759 25.0778 28.128 24.7298 27.4926 24.0336C26.8619 23.3326 26.5465 22.4053 26.5465 21.2515C26.5465 19.9956 26.8759 19.0147 27.5346 18.3088C28.1934 17.6029 29.0834 17.25 30.2046 17.25C31.2745 17.25 32.1085 17.5932 32.7065 18.2796C33.3091 18.966 33.6105 19.9177 33.6105 21.1347C33.6105 22.3274 33.2858 23.2839 32.6364 24.0044C31.9917 24.72 31.125 25.0778 30.0365 25.0778ZM30.1206 18.2577C29.3824 18.2577 28.7984 18.5206 28.3686 19.0463C27.9388 19.5672 27.7239 20.2877 27.7239 21.2077C27.7239 22.0937 27.9411 22.7923 28.3756 23.3034C28.8101 23.8146 29.3917 24.0701 30.1206 24.0701C30.8634 24.0701 31.4334 23.8194 31.8305 23.318C32.2323 22.8166 32.4332 22.1034 32.4332 21.1785C32.4332 20.2438 32.2323 19.5234 31.8305 19.0171C31.4334 18.5108 30.8634 18.2577 30.1206 18.2577Z" fill="black"/>
<path d="M35.2505 24.6324V23.3472C35.8765 23.8292 36.5656 24.0701 37.3178 24.0701C38.327 24.0701 38.8315 23.7196 38.8315 23.0186C38.8315 22.819 38.7871 22.6511 38.6984 22.5148C38.6143 22.3736 38.4975 22.2495 38.348 22.1424C38.2031 22.0353 38.0303 21.9404 37.8294 21.8576C37.6332 21.77 37.4206 21.6799 37.1917 21.5874C36.874 21.456 36.5937 21.3246 36.3507 21.1931C36.1125 21.0568 35.9116 20.9059 35.748 20.7404C35.5892 20.57 35.4677 20.3777 35.3836 20.1635C35.3042 19.9493 35.2645 19.6986 35.2645 19.4114C35.2645 19.0609 35.3416 18.7518 35.4958 18.4841C35.6499 18.2114 35.8555 17.9851 36.1125 17.805C36.3694 17.62 36.6614 17.4812 36.9884 17.3887C37.3201 17.2962 37.6612 17.25 38.0116 17.25C38.633 17.25 39.1889 17.362 39.6795 17.5859V18.798C39.1515 18.4378 38.5442 18.2577 37.8574 18.2577C37.6425 18.2577 37.4486 18.2845 37.2758 18.338C37.1029 18.3867 36.9534 18.4573 36.8273 18.5498C36.7058 18.6423 36.61 18.7542 36.5399 18.8857C36.4745 19.0122 36.4418 19.1534 36.4418 19.3092C36.4418 19.5039 36.4745 19.667 36.5399 19.7984C36.61 19.9299 36.7105 20.0467 36.8413 20.1489C36.9721 20.2512 37.1309 20.3436 37.3178 20.4264C37.5047 20.5092 37.7173 20.5992 37.9555 20.6966C38.2732 20.8231 38.5582 20.9546 38.8105 21.0909C39.0628 21.2223 39.2777 21.3732 39.4552 21.5436C39.6328 21.7091 39.7682 21.9014 39.8617 22.1205C39.9598 22.3395 40.0088 22.6 40.0088 22.9018C40.0088 23.2718 39.9294 23.5931 39.7706 23.8657C39.6164 24.1383 39.4085 24.3647 39.1469 24.5448C38.8852 24.7249 38.5839 24.8588 38.2429 24.9464C37.9018 25.034 37.5444 25.0778 37.1706 25.0778C36.4325 25.0778 35.7924 24.9293 35.2505 24.6324Z" fill="black"/>
</svg>
