<svg width="40" height="40" viewBox="0 0 40 40" fill="none" xmlns="http://www.w3.org/2000/svg">
<path d="M8.4783 25.1372H7.36774V24.0538H7.34066C6.85761 24.8844 6.14658 25.2998 5.20757 25.2998C4.51686 25.2998 3.97512 25.1169 3.58237 24.7512C3.19412 24.3856 3 23.9003 3 23.2953C3 21.9997 3.76294 21.2458 5.28883 21.0336L7.36774 20.7424C7.36774 19.5641 6.89147 18.975 5.93892 18.975C5.10374 18.975 4.34982 19.2594 3.67717 19.8282V18.6906C4.35885 18.2572 5.14437 18.0405 6.03372 18.0405C7.66344 18.0405 8.4783 18.9028 8.4783 20.6273V25.1372ZM7.36774 21.6295L5.69514 21.8597C5.18049 21.932 4.79224 22.0606 4.5304 22.2457C4.26856 22.4263 4.13765 22.7491 4.13765 23.2141C4.13765 23.5527 4.25728 23.8303 4.49654 24.047C4.74033 24.2592 5.06311 24.3653 5.4649 24.3653C6.01566 24.3653 6.46937 24.1734 6.82601 23.7897C7.18717 23.4014 7.36774 22.9116 7.36774 22.3202V21.6295Z" fill="black"/>
<path d="M14.4172 19.3271C14.2231 19.1781 13.9432 19.1036 13.5775 19.1036C13.1035 19.1036 12.7062 19.3271 12.3857 19.774C12.0697 20.221 11.9117 20.8304 11.9117 21.6024V25.1372H10.8011V18.203H11.9117V19.6318H11.9388C12.0968 19.1443 12.3383 18.7651 12.6634 18.4942C12.9884 18.2188 13.3518 18.0811 13.7536 18.0811C14.0425 18.0811 14.2637 18.1127 14.4172 18.1759V19.3271Z" fill="black"/>
<path d="M20.5796 24.819C20.0469 25.1395 19.4149 25.2998 18.6835 25.2998C17.6949 25.2998 16.8958 24.9792 16.2864 24.3382C15.6814 23.6926 15.3789 22.8574 15.3789 21.8326C15.3789 20.6905 15.7062 19.774 16.3608 19.0833C17.0154 18.3881 17.889 18.0405 18.9815 18.0405C19.5909 18.0405 20.1282 18.1534 20.5932 18.3791V19.5167C20.0785 19.1556 19.5277 18.975 18.9409 18.975C18.2321 18.975 17.6497 19.2301 17.1938 19.7402C16.7423 20.2458 16.5166 20.9117 16.5166 21.7378C16.5166 22.5504 16.7288 23.1915 17.1531 23.661C17.582 24.1305 18.1553 24.3653 18.8731 24.3653C19.4781 24.3653 20.0469 24.1644 20.5796 23.7626V24.819Z" fill="black"/>
<path d="M22.0695 24.8867V23.6949C22.6745 24.1418 23.3403 24.3653 24.0672 24.3653C25.0423 24.3653 25.5299 24.0402 25.5299 23.3901C25.5299 23.205 25.487 23.0493 25.4012 22.9229C25.3199 22.792 25.2071 22.6768 25.0626 22.5775C24.9227 22.4782 24.7556 22.3902 24.5615 22.3134C24.3719 22.2322 24.1665 22.1487 23.9453 22.0629C23.6383 21.941 23.3674 21.8191 23.1327 21.6972C22.9024 21.5708 22.7083 21.4309 22.5503 21.2774C22.3968 21.1194 22.2794 20.941 22.1982 20.7424C22.1214 20.5438 22.0831 20.3113 22.0831 20.0449C22.0831 19.7199 22.1576 19.4332 22.3065 19.1849C22.4555 18.9321 22.6541 18.7222 22.9024 18.5551C23.1507 18.3836 23.4329 18.2549 23.7489 18.1692C24.0694 18.0834 24.399 18.0405 24.7376 18.0405C25.338 18.0405 25.8752 18.1443 26.3492 18.352V19.4761C25.8391 19.142 25.2522 18.975 24.5886 18.975C24.3809 18.975 24.1936 18.9998 24.0265 19.0495C23.8595 19.0946 23.715 19.1601 23.5932 19.2459C23.4758 19.3316 23.3832 19.4355 23.3155 19.5574C23.2523 19.6747 23.2207 19.8056 23.2207 19.9501C23.2207 20.1307 23.2523 20.2819 23.3155 20.4038C23.3832 20.5257 23.4803 20.6341 23.6067 20.7289C23.7331 20.8237 23.8866 20.9094 24.0672 20.9862C24.2478 21.0629 24.4532 21.1464 24.6834 21.2367C24.9904 21.3541 25.2658 21.476 25.5095 21.6024C25.7533 21.7243 25.961 21.8642 26.1325 22.0223C26.3041 22.1757 26.435 22.3541 26.5253 22.5572C26.6201 22.7604 26.6675 23.0019 26.6675 23.2818C26.6675 23.6249 26.5908 23.9228 26.4373 24.1757C26.2883 24.4285 26.0874 24.6384 25.8346 24.8054C25.5818 24.9725 25.2906 25.0966 24.961 25.1779C24.6315 25.2591 24.2861 25.2998 23.925 25.2998C23.2117 25.2998 22.5932 25.1621 22.0695 24.8867Z" fill="black"/>
<path d="M29.1799 16.4424C28.9813 16.4424 28.812 16.3747 28.6721 16.2392C28.5321 16.1038 28.4621 15.9322 28.4621 15.7246C28.4621 15.5169 28.5321 15.3454 28.6721 15.2099C28.812 15.07 28.9813 15 29.1799 15C29.3831 15 29.5546 15.07 29.6946 15.2099C29.8391 15.3454 29.9113 15.5169 29.9113 15.7246C29.9113 15.9232 29.8391 16.0925 29.6946 16.2324C29.5546 16.3724 29.3831 16.4424 29.1799 16.4424ZM29.7217 25.1372H28.6111V18.203H29.7217V25.1372Z" fill="black"/>
<path d="M37.9562 25.1372H36.8456V21.1826C36.8456 19.7108 36.3084 18.975 35.234 18.975C34.6787 18.975 34.2182 19.1849 33.8526 19.6048C33.4914 20.0201 33.3108 20.546 33.3108 21.1826V25.1372H32.2003V18.203H33.3108V19.3542H33.3379C33.8616 18.4784 34.62 18.0405 35.6132 18.0405C36.3716 18.0405 36.9517 18.2865 37.3535 18.7786C37.7553 19.2662 37.9562 19.9727 37.9562 20.8981V25.1372Z" fill="black"/>
</svg>
