<svg width="40" height="40" viewBox="0 0 40 40" fill="none" xmlns="http://www.w3.org/2000/svg">
<path d="M5.71568 24.6804H4.557V23.5735H4.52874C4.02476 24.4221 3.28292 24.8464 2.30323 24.8464C1.58259 24.8464 1.01738 24.6596 0.6076 24.286C0.202533 23.9125 0 23.4167 0 22.7986C0 21.475 0.796003 20.7047 2.38801 20.488L4.557 20.1905C4.557 18.9867 4.06008 18.3849 3.06626 18.3849C2.1949 18.3849 1.40831 18.6754 0.706511 19.2565V18.0943C1.41773 17.6515 2.23729 17.4302 3.16517 17.4302C4.86551 17.4302 5.71568 18.3111 5.71568 20.0729V24.6804ZM4.557 21.0968L2.81191 21.332C2.27497 21.4058 1.8699 21.5372 1.59672 21.7263C1.32353 21.9108 1.18694 22.2406 1.18694 22.7156C1.18694 23.0615 1.31176 23.3452 1.56139 23.5665C1.81573 23.7833 2.1525 23.8917 2.5717 23.8917C3.14633 23.8917 3.61969 23.6957 3.99179 23.3037C4.36859 22.907 4.557 22.4066 4.557 21.8024V21.0968Z" fill="black"/>
<path d="M11.9119 18.7446C11.7094 18.5924 11.4174 18.5163 11.0359 18.5163C10.5413 18.5163 10.1268 18.7446 9.79239 19.2012C9.46269 19.6578 9.29784 20.2804 9.29784 21.0691V24.6804H8.13916V17.5962H9.29784V19.0559H9.3261C9.49095 18.5578 9.74294 18.1704 10.0821 17.8937C10.4212 17.6123 10.8004 17.4717 11.2195 17.4717C11.521 17.4717 11.7518 17.504 11.9119 17.5685V18.7446Z" fill="black"/>
<path d="M18.3413 24.3552C17.7855 24.6827 17.1261 24.8464 16.3631 24.8464C15.3316 24.8464 14.4979 24.5189 13.862 23.864C13.2309 23.2045 12.9153 22.3513 12.9153 21.3043C12.9153 20.1375 13.2568 19.2012 13.9398 18.4956C14.6227 17.7853 15.5341 17.4302 16.674 17.4302C17.3098 17.4302 17.8703 17.5455 18.3555 17.7761V18.9383C17.8185 18.5693 17.2439 18.3849 16.6316 18.3849C15.8921 18.3849 15.2845 18.6454 14.8088 19.1666C14.3378 19.6832 14.1023 20.3634 14.1023 21.2075C14.1023 22.0376 14.3236 22.6926 14.7664 23.1722C15.2138 23.6519 15.812 23.8917 16.5609 23.8917C17.1921 23.8917 17.7855 23.6865 18.3413 23.276V24.3552Z" fill="black"/>
<path d="M23.6898 24.6112C23.4166 24.7588 23.0563 24.8326 22.6088 24.8326C21.3418 24.8326 20.7083 24.1408 20.7083 22.7571V18.5647H19.4648V17.5962H20.7083V15.8667L21.867 15.5V17.5962H23.6898V18.5647H21.867V22.5565C21.867 23.0315 21.9494 23.3705 22.1142 23.5735C22.2791 23.7764 22.5523 23.8779 22.9338 23.8779C23.2258 23.8779 23.4778 23.7995 23.6898 23.6426V24.6112Z" fill="black"/>
<path d="M30.6561 24.6804H29.4974V23.5735H29.4692C28.9652 24.4221 28.2234 24.8464 27.2437 24.8464C26.523 24.8464 25.9578 24.6596 25.548 24.286C25.143 23.9125 24.9404 23.4167 24.9404 22.7986C24.9404 21.475 25.7364 20.7047 27.3284 20.488L29.4974 20.1905C29.4974 18.9867 29.0005 18.3849 28.0067 18.3849C27.1353 18.3849 26.3488 18.6754 25.6469 19.2565V18.0943C26.3582 17.6515 27.1777 17.4302 28.1056 17.4302C29.8059 17.4302 30.6561 18.3111 30.6561 20.0729V24.6804ZM29.4974 21.0968L27.7524 21.332C27.2154 21.4058 26.8103 21.5372 26.5372 21.7263C26.264 21.9108 26.1274 22.2406 26.1274 22.7156C26.1274 23.0615 26.2522 23.3452 26.5018 23.5665C26.7562 23.7833 27.0929 23.8917 27.5121 23.8917C28.0868 23.8917 28.5601 23.6957 28.9322 23.3037C29.309 22.907 29.4974 22.4066 29.4974 21.8024V21.0968Z" fill="black"/>
<path d="M39.0849 24.6804H37.9263V20.6402C37.9263 19.1366 37.3658 18.3849 36.2448 18.3849C35.6654 18.3849 35.185 18.5993 34.8035 19.0282C34.4267 19.4526 34.2383 19.9899 34.2383 20.6402V24.6804H33.0796V17.5962H34.2383V18.7723H34.2665C34.8129 17.8775 35.6042 17.4302 36.6404 17.4302C37.4317 17.4302 38.037 17.6815 38.4561 18.1842C38.8753 18.6823 39.0849 19.4041 39.0849 20.3496V24.6804Z" fill="black"/>
</svg>
