<svg width="24" height="24" viewBox="0 0 24 24" fill="none" xmlns="http://www.w3.org/2000/svg">
<path d="M8.5 6C8.77614 6 9 6.22386 9 6.5V8H10.5C10.7761 8 11 8.22386 11 8.5C11 8.77614 10.7761 9 10.5 9H9V10.5C9 10.7761 8.77614 11 8.5 11C8.22386 11 8 10.7761 8 10.5V9H6.5C6.22386 9 6 8.77614 6 8.5C6 8.22386 6.22386 8 6.5 8H8V6.5C8 6.22386 8.22386 6 8.5 6ZM13.5 8C13.2239 8 13 8.22386 13 8.5C13 8.77614 13.2239 9 13.5 9H17.5C17.7761 9 18 8.77614 18 8.5C18 8.22386 17.7761 8 17.5 8H13.5ZM9.20711 15.5L10.8536 13.8536C11.0488 13.6583 11.0488 13.3417 10.8536 13.1464C10.6583 12.9512 10.3417 12.9512 10.1464 13.1464L8.5 14.7929L6.85355 13.1464C6.65829 12.9512 6.34171 12.9512 6.14645 13.1464C5.95118 13.3417 5.95118 13.6583 6.14645 13.8536L7.79289 15.5L6.14645 17.1464C5.95118 17.3417 5.95118 17.6583 6.14645 17.8536C6.34171 18.0488 6.65829 18.0488 6.85355 17.8536L8.5 16.2071L10.1464 17.8536C10.3417 18.0488 10.6583 18.0488 10.8536 17.8536C11.0488 17.6583 11.0488 17.3417 10.8536 17.1464L9.20711 15.5ZM15.5 14C16.0523 14 16.5 13.5523 16.5 13C16.5 12.4477 16.0523 12 15.5 12C14.9477 12 14.5 12.4477 14.5 13C14.5 13.5523 14.9477 14 15.5 14ZM13.5 14.5C13.2239 14.5 13 14.7239 13 15C13 15.2761 13.2239 15.5 13.5 15.5H17.5C17.7761 15.5 18 15.2761 18 15C18 14.7239 17.7761 14.5 17.5 14.5H13.5ZM16.5 17C16.5 17.5523 16.0523 18 15.5 18C14.9477 18 14.5 17.5523 14.5 17C14.5 16.4477 14.9477 16 15.5 16C16.0523 16 16.5 16.4477 16.5 17Z" fill="black"/>
</svg>
