<svg width="24" height="24" viewBox="0 0 24 24" fill="none" xmlns="http://www.w3.org/2000/svg">
<path d="M18.7512 7.13477C18.5325 7.01172 18.2795 6.9502 17.9924 6.9502C17.2177 6.9502 16.8303 7.44466 16.8303 8.43359V17.4707C16.8303 18.1908 16.6161 18.765 16.1877 19.1934C15.7639 19.6217 15.2353 19.8359 14.6018 19.8359C14.26 19.8359 13.9889 19.7926 13.7883 19.7061V18.7012C14.0071 18.8197 14.2555 18.8789 14.5334 18.8789C15.3173 18.8789 15.7092 18.3844 15.7092 17.3955V8.37891C15.7092 7.64974 15.9211 7.07096 16.345 6.64258C16.7734 6.21419 17.302 6 17.9309 6C18.2773 6 18.5507 6.04102 18.7512 6.12305V7.13477Z" fill="black"/>
<path d="M11.5762 16.5137H5V15.9805L8.17871 11.4688L5.28711 7.32617V6.71094H11.1523V7.77051H6.96191L9.55273 11.4277L6.68164 15.502H11.5762V16.5137Z" fill="black"/>
</svg>
