<svg width="24" height="24" viewBox="0 0 24 24" fill="none" xmlns="http://www.w3.org/2000/svg">
<path d="M18.3549 13.559L18.3647 13.5458V13.5293V13.1021V13.0521H18.3147H15.1403H15.0903V13.1021V13.7002V13.7502H15.1403H17.3012L14.9078 16.9859L14.898 16.9991V17.0156V17.4771V17.5271H14.948H18.3446H18.3946V17.4771V16.8789V16.8289H18.3446H15.9359L18.3549 13.559Z" fill="black" stroke="black" stroke-width="0.1"/>
<path d="M14.459 13.1204L14.486 13.0521H14.4125H13.6862H13.6517L13.6394 13.0842L12.4305 16.2497C12.402 16.3209 12.3778 16.3822 12.3578 16.4335L12.3578 16.4335L12.357 16.4358C12.3503 16.4558 12.3438 16.4781 12.3373 16.5028C12.331 16.4801 12.3252 16.4599 12.32 16.4422C12.3054 16.3893 12.2836 16.3227 12.255 16.2426L12.2549 16.2423L11.1056 13.0849L11.0936 13.0521H11.0586H10.281H10.2077L10.2344 13.1203L11.936 17.4678L11.5594 18.3591C11.4663 18.5791 11.3713 18.7144 11.2784 18.7772L11.2784 18.7772L11.2771 18.7781C11.1842 18.8452 11.0723 18.8797 10.939 18.8797C10.855 18.8797 10.7741 18.8689 10.6959 18.8473L10.6959 18.8473L10.6947 18.847C10.619 18.8281 10.5399 18.7981 10.4572 18.7568L10.412 18.7342L10.3899 18.7796L10.1165 19.3393L10.0949 19.3834L10.1386 19.4057C10.2643 19.47 10.3893 19.5158 10.5135 19.5424C10.6375 19.5719 10.7766 19.5864 10.9304 19.5864C11.242 19.5864 11.516 19.5009 11.7502 19.329C11.985 19.1596 12.1708 18.8986 12.3099 18.5509L12.3099 18.5507L14.459 13.1204Z" fill="black" stroke="black" stroke-width="0.1"/>
<path d="M9.58364 13.1297L9.63522 13.0521H9.54199H8.78577H8.75841L8.74366 13.0751L7.83808 14.489C7.83805 14.489 7.83802 14.4891 7.83799 14.4891C7.80068 14.5465 7.76479 14.604 7.73032 14.6614L7.73029 14.6614L7.72938 14.663C7.70948 14.6992 7.689 14.7354 7.66794 14.7716C7.649 14.736 7.63064 14.7004 7.61284 14.6648C7.58376 14.6066 7.55181 14.5485 7.517 14.4905L7.517 14.4905L7.5168 14.4902L6.65376 13.076L6.63915 13.0521H6.61108H5.81213H5.72078L5.77002 13.129L7.17904 15.3311L5.70699 17.4485L5.65239 17.5271H5.74805H6.52991H6.55662L6.57147 17.5048L7.46834 16.1638C7.53687 16.0667 7.58785 15.9882 7.62047 15.9289C7.6291 15.9132 7.6367 15.8995 7.64333 15.8878C7.66783 15.9322 7.691 15.9733 7.71283 16.011C7.7444 16.0655 7.7746 16.1159 7.80343 16.162L7.80342 16.162L7.8039 16.1627L8.67548 17.5043L8.69027 17.5271H8.71741H9.51636H9.60989L9.55793 17.4493L8.13234 15.3151L9.58364 13.1297Z" fill="black" stroke="black" stroke-width="0.1"/>
<path d="M18.8788 10.8531L18.9084 10.8131L18.8685 10.7833L18.3473 10.3945L18.3067 10.3643L18.277 10.4051C18.1361 10.5985 17.9749 10.7315 17.7941 10.8071C17.6117 10.8817 17.4302 10.9186 17.2493 10.9186C16.7794 10.9186 16.4151 10.7704 16.1499 10.478C15.8866 10.1844 15.7526 9.7915 15.7526 9.29382C15.7526 8.80187 15.8852 8.40853 16.1462 8.10905C16.4099 7.80687 16.745 7.6562 17.1553 7.6562C17.3772 7.6562 17.5753 7.69502 17.7505 7.77164L17.7505 7.77165L17.7513 7.772C17.9272 7.84506 18.102 7.9803 18.2752 8.18143L18.3055 8.21657L18.3428 8.18904L18.864 7.80452L18.9047 7.77449L18.8742 7.73414C18.6756 7.47127 18.4297 7.27497 18.1369 7.14609C17.8451 7.01483 17.5262 6.94951 17.1809 6.94951C16.5197 6.94951 15.9778 7.16319 15.56 7.5927C15.1415 8.02288 14.9349 8.60909 14.9349 9.34509C14.9349 10.0277 15.1348 10.5821 15.5384 11.0032L15.5386 11.0035C15.9462 11.4228 16.513 11.6296 17.2322 11.6296C17.5576 11.6296 17.8634 11.5685 18.1491 11.4461L18.1495 11.4459C18.4372 11.3197 18.6803 11.1216 18.8788 10.8531Z" fill="black" stroke="black" stroke-width="0.1"/>
<path d="M10.8577 11.5271H10.9077V11.4771V11.0707C11.0466 11.2351 11.2181 11.3657 11.4215 11.4624L11.4222 11.4627C11.6661 11.5744 11.944 11.6296 12.2548 11.6296C12.8971 11.6296 13.4022 11.4079 13.7634 10.9616C14.1228 10.5175 14.3 9.92849 14.3 9.19983C14.3 8.5084 14.1314 7.95867 13.7883 7.55678C13.444 7.15076 12.9663 6.94951 12.3616 6.94951C12.0324 6.94951 11.7364 7.01949 11.4748 7.16058C11.2514 7.28108 11.0622 7.44047 10.9077 7.63845V5V4.95H10.8577H10.157H10.107V5V11.4771V11.5271H10.157H10.8577ZM13.1378 10.4769L13.1377 10.4771C12.9148 10.7734 12.5959 10.9229 12.1736 10.9229C11.7921 10.9229 11.4881 10.8031 11.2567 10.5664C11.0239 10.3253 10.9077 10.0345 10.9077 9.69116V9.0802C10.9077 8.66981 11.0334 8.33207 11.2831 8.0632C11.5345 7.79265 11.8667 7.6562 12.2847 7.6562C12.6551 7.6562 12.9435 7.79112 13.1554 8.06012L13.1554 8.06012L13.1558 8.06055C13.371 8.32755 13.4822 8.71488 13.4822 9.22974C13.4822 9.76412 13.3655 10.178 13.1378 10.4769Z" fill="black" stroke="black" stroke-width="0.1"/>
<path d="M8.92224 11.5271H8.97224V11.4771V8.55042C8.97224 8.0511 8.83266 7.65667 8.54743 7.3743C8.26471 7.08872 7.86001 6.94951 7.34143 6.94951C6.92091 6.94951 6.55551 7.04239 6.24729 7.23026L6.24729 7.23025L6.24711 7.23037C5.94181 7.41824 5.71578 7.6827 5.56944 8.0222L5.54934 8.06884L5.59629 8.08821L6.20725 8.34029L6.25263 8.35901L6.27218 8.31398C6.36281 8.10526 6.49233 7.94506 6.66024 7.83131L6.66025 7.83132L6.6607 7.831C6.82698 7.71568 7.03993 7.6562 7.30298 7.6562C7.57817 7.6562 7.78792 7.73298 7.93871 7.88113L7.93871 7.88113L7.93935 7.88174C8.09122 8.02575 8.17156 8.24677 8.17156 8.55469V8.78783L6.95546 8.92799L6.95536 8.928C6.48736 8.98289 6.1177 9.12652 5.85142 9.36316C5.58215 9.59958 5.45 9.93209 5.45 10.3534C5.45 10.7169 5.57769 11.0221 5.83293 11.2654L5.83314 11.2656C6.0926 11.5102 6.44799 11.6296 6.89282 11.6296C7.17363 11.6296 7.43085 11.5696 7.66354 11.4488L7.66374 11.4487C7.86247 11.3444 8.0318 11.2033 8.17156 11.0259V11.4771V11.5271H8.22156H8.92224ZM6.44458 9.80849L6.44458 9.80849L6.44499 9.80809C6.56205 9.69363 6.74889 9.61772 7.01386 9.58703C7.01388 9.58703 7.01391 9.58702 7.01393 9.58702L8.17156 9.45659V9.69971C8.17156 10.068 8.06388 10.3689 7.85108 10.6063L7.85106 10.6063C7.64215 10.8396 7.36712 10.9571 7.021 10.9571C6.79164 10.9571 6.6108 10.8932 6.47366 10.7694C6.33718 10.6433 6.26777 10.4764 6.26777 10.2637C6.26777 10.0699 6.32785 9.92003 6.44458 9.80849Z" fill="black" stroke="black" stroke-width="0.1"/>
</svg>
