<svg width="34" height="16" viewBox="0 0 34 16" fill="none" xmlns="http://www.w3.org/2000/svg">
<path d="M10.6917 14.4141C9.65656 14.9609 8.3675 15.2344 6.82453 15.2344C4.83234 15.2344 3.23729 14.5931 2.03937 13.3105C0.841455 12.028 0.242496 10.3451 0.242496 8.26172C0.242496 6.02214 0.916325 4.21224 2.26398 2.83203C3.61164 1.45182 5.32062 0.761719 7.39093 0.761719C8.71906 0.761719 9.81932 0.953776 10.6917 1.33789V3.08594C9.68911 2.52604 8.58234 2.24609 7.3714 2.24609C5.76333 2.24609 4.45799 2.7832 3.45539 3.85742C2.45929 4.93164 1.96125 6.36719 1.96125 8.16406C1.96125 9.86979 2.42674 11.2305 3.35773 12.2461C4.29523 13.2552 5.52244 13.7598 7.03937 13.7598C8.44562 13.7598 9.66307 13.4473 10.6917 12.8223V14.4141ZM21.0996 15H13.834V0.996094H15.4746V13.5156H21.0996V15ZM33.5778 15H31.6247L29.2809 11.0742C29.0661 10.7096 28.8578 10.4004 28.6559 10.1465C28.4541 9.88607 28.2458 9.67448 28.0309 9.51172C27.8226 9.34896 27.5947 9.23177 27.3473 9.16016C27.1065 9.08203 26.833 9.04297 26.527 9.04297H25.1794V15H23.5388V0.996094H27.7184C28.3304 0.996094 28.8936 1.07422 29.4079 1.23047C29.9287 1.38021 30.3779 1.61133 30.7556 1.92383C31.1397 2.23633 31.4391 2.62695 31.654 3.0957C31.8688 3.55794 31.9763 4.10156 31.9763 4.72656C31.9763 5.21484 31.9014 5.66406 31.7516 6.07422C31.6084 6.47786 31.4001 6.83919 31.1266 7.1582C30.8597 7.47721 30.5342 7.75065 30.1501 7.97852C29.7725 8.19987 29.346 8.3724 28.8708 8.49609V8.53516C29.1052 8.63932 29.307 8.75977 29.4763 8.89648C29.652 9.02669 29.8181 9.18294 29.9743 9.36523C30.1306 9.54753 30.2835 9.75586 30.4333 9.99023C30.5895 10.2181 30.7621 10.485 30.9509 10.791L33.5778 15ZM25.1794 2.48047V7.55859H27.4059C27.8161 7.55859 28.1937 7.49674 28.5388 7.37305C28.8903 7.24935 29.1931 7.07357 29.447 6.8457C29.7009 6.61133 29.8994 6.32812 30.0427 5.99609C30.1859 5.65755 30.2575 5.27995 30.2575 4.86328C30.2575 4.11458 30.0134 3.5319 29.5251 3.11523C29.0433 2.69206 28.3434 2.48047 27.4255 2.48047H25.1794Z" fill="white"/>
<path d="M10.6917 14.4141L10.7501 14.5246C10.7911 14.5029 10.8167 14.4604 10.8167 14.4141H10.6917ZM2.03937 13.3105L1.94802 13.3959L2.03937 13.3105ZM10.6917 1.33789H10.8167C10.8167 1.28833 10.7874 1.24346 10.7421 1.22349L10.6917 1.33789ZM10.6917 3.08594L10.6308 3.19507C10.6695 3.21669 10.7167 3.21618 10.755 3.19374C10.7932 3.1713 10.8167 3.13028 10.8167 3.08594H10.6917ZM3.45539 3.85742L3.364 3.77213L3.36373 3.77243L3.45539 3.85742ZM3.35773 12.2461L3.26558 12.3306L3.26615 12.3312L3.35773 12.2461ZM10.6917 12.8223H10.8167C10.8167 12.7771 10.7924 12.7355 10.753 12.7133C10.7136 12.6912 10.6654 12.692 10.6268 12.7154L10.6917 12.8223ZM10.6333 14.3035C9.62097 14.8384 8.35338 15.1094 6.82453 15.1094V15.3594C8.38161 15.3594 9.69215 15.0835 10.7501 14.5246L10.6333 14.3035ZM6.82453 15.1094C4.86182 15.1094 3.3017 14.4789 2.13072 13.2252L1.94802 13.3959C3.17288 14.7073 4.80286 15.3594 6.82453 15.3594V15.1094ZM2.13072 13.2252C0.958375 11.97 0.367496 10.3197 0.367496 8.26172H0.117496C0.117496 10.3704 0.724534 12.0859 1.94802 13.3959L2.13072 13.2252ZM0.367496 8.26172C0.367496 6.04911 1.03223 4.27246 2.35342 2.91936L2.17454 2.7447C0.800418 4.15202 0.117496 5.99516 0.117496 8.26172H0.367496ZM2.35342 2.91936C3.67571 1.56513 5.35155 0.886719 7.39093 0.886719V0.636719C5.28969 0.636719 3.54757 1.33851 2.17454 2.7447L2.35342 2.91936ZM7.39093 0.886719C8.70808 0.886719 9.78977 1.07734 10.6413 1.45229L10.7421 1.22349C9.84887 0.830208 8.73003 0.636719 7.39093 0.636719V0.886719ZM10.5667 1.33789V3.08594H10.8167V1.33789H10.5667ZM10.7527 2.9768C9.7304 2.40593 8.60247 2.12109 7.3714 2.12109V2.37109C8.56221 2.37109 9.64782 2.64615 10.6308 3.19507L10.7527 2.9768ZM7.3714 2.12109C5.73232 2.12109 4.39262 2.67004 3.36401 3.77213L3.54677 3.94271C4.52336 2.89636 5.79434 2.37109 7.3714 2.37109V2.12109ZM3.36373 3.77243C2.34159 4.87473 1.83625 6.34317 1.83625 8.16406H2.08625C2.08625 6.3912 2.57699 4.98855 3.54705 3.94241L3.36373 3.77243ZM1.83625 8.16406C1.83625 9.89328 2.30873 11.2867 3.26559 12.3306L3.44988 12.1616C2.54475 11.1742 2.08625 9.8463 2.08625 8.16406H1.83625ZM3.26615 12.3312C4.22984 13.3685 5.49161 13.8848 7.03937 13.8848V13.6348C5.55328 13.6348 4.36062 13.1419 3.44931 12.161L3.26615 12.3312ZM7.03937 13.8848C8.46461 13.8848 9.70532 13.5679 10.7566 12.9291L10.6268 12.7154C9.62082 13.3267 8.42664 13.6348 7.03937 13.6348V13.8848ZM10.5667 12.8223V14.4141H10.8167V12.8223H10.5667ZM21.0996 15V15.125C21.1686 15.125 21.2246 15.069 21.2246 15H21.0996ZM13.834 15H13.709C13.709 15.069 13.7649 15.125 13.834 15.125V15ZM13.834 0.996094V0.871094C13.7649 0.871094 13.709 0.927058 13.709 0.996094H13.834ZM15.4746 0.996094H15.5996C15.5996 0.927058 15.5436 0.871094 15.4746 0.871094V0.996094ZM15.4746 13.5156H15.3496C15.3496 13.5847 15.4056 13.6406 15.4746 13.6406V13.5156ZM21.0996 13.5156H21.2246C21.2246 13.4466 21.1686 13.3906 21.0996 13.3906V13.5156ZM21.0996 14.875H13.834V15.125H21.0996V14.875ZM13.959 15V0.996094H13.709V15H13.959ZM13.834 1.12109H15.4746V0.871094H13.834V1.12109ZM15.3496 0.996094V13.5156H15.5996V0.996094H15.3496ZM15.4746 13.6406H21.0996V13.3906H15.4746V13.6406ZM20.9746 13.5156V15H21.2246V13.5156H20.9746ZM33.5778 15V15.125C33.6232 15.125 33.6651 15.1004 33.6871 15.0606C33.7092 15.0209 33.7079 14.9724 33.6839 14.9338L33.5778 15ZM31.6247 15L31.5174 15.0641C31.5399 15.1019 31.5807 15.125 31.6247 15.125V15ZM29.2809 11.0742L29.1732 11.1377L29.1736 11.1383L29.2809 11.0742ZM28.6559 10.1465L28.5571 10.2231L28.5581 10.2243L28.6559 10.1465ZM28.0309 9.51172L27.954 9.61023L27.9555 9.61135L28.0309 9.51172ZM27.3473 9.16016L27.3088 9.27912L27.3126 9.28023L27.3473 9.16016ZM25.1794 9.04297V8.91797C25.1103 8.91797 25.0544 8.97393 25.0544 9.04297H25.1794ZM25.1794 15V15.125C25.2484 15.125 25.3044 15.069 25.3044 15H25.1794ZM23.5388 15H23.4138C23.4138 15.069 23.4697 15.125 23.5388 15.125V15ZM23.5388 0.996094V0.871094C23.4697 0.871094 23.4138 0.927058 23.4138 0.996094H23.5388ZM29.4079 1.23047L29.3716 1.35008L29.3734 1.3506L29.4079 1.23047ZM30.7556 1.92383L30.6759 2.02013L30.6767 2.02079L30.7556 1.92383ZM31.654 3.0957L31.5404 3.14779L31.5406 3.14839L31.654 3.0957ZM31.7516 6.07422L31.6342 6.03135L31.6338 6.03242L31.7516 6.07422ZM31.1266 7.1582L31.0317 7.07685L31.0308 7.07799L31.1266 7.1582ZM30.1501 7.97852L30.2133 8.08635L30.2139 8.08602L30.1501 7.97852ZM28.8708 8.49609L28.8393 8.37512C28.7842 8.38946 28.7458 8.43918 28.7458 8.49609H28.8708ZM28.8708 8.53516H28.7458C28.7458 8.58455 28.7749 8.62932 28.82 8.64938L28.8708 8.53516ZM29.4763 8.89648L29.3976 8.99381L29.4018 8.99693L29.4763 8.89648ZM30.4333 9.99023L30.3279 10.0576L30.3302 10.0609L30.4333 9.99023ZM30.9509 10.791L30.8445 10.8567L30.8448 10.8572L30.9509 10.791ZM25.1794 2.48047V2.35547C25.1103 2.35547 25.0544 2.41143 25.0544 2.48047H25.1794ZM25.1794 7.55859H25.0544C25.0544 7.62763 25.1103 7.68359 25.1794 7.68359V7.55859ZM28.5388 7.37305L28.4973 7.25513L28.4966 7.25538L28.5388 7.37305ZM29.447 6.8457L29.5305 6.93874L29.5317 6.93755L29.447 6.8457ZM30.0427 5.99609L30.1574 6.04561L30.1578 6.0448L30.0427 5.99609ZM29.5251 3.11523L29.4426 3.20916L29.4439 3.21032L29.5251 3.11523ZM33.5778 14.875H31.6247V15.125H33.5778V14.875ZM31.732 14.9359L29.3883 11.0101L29.1736 11.1383L31.5174 15.0641L31.732 14.9359ZM29.3886 11.0108C29.1717 10.6426 28.9601 10.3283 28.7538 10.0687L28.5581 10.2243C28.7554 10.4725 28.9605 10.7767 29.1732 11.1377L29.3886 11.0108ZM28.7547 10.0699C28.5476 9.80266 28.3317 9.58275 28.1064 9.41208L27.9555 9.61135C28.1599 9.76621 28.3606 9.96947 28.5571 10.2231L28.7547 10.0699ZM28.1079 9.41322C27.8873 9.24091 27.6452 9.11625 27.3821 9.04009L27.3126 9.28023C27.5443 9.34729 27.7579 9.45701 27.954 9.61022L28.1079 9.41322ZM27.3859 9.04125C27.1303 8.95835 26.8435 8.91797 26.527 8.91797V9.16797C26.8226 9.16797 27.0826 9.20571 27.3088 9.27906L27.3859 9.04125ZM26.527 8.91797H25.1794V9.16797H26.527V8.91797ZM25.0544 9.04297V15H25.3044V9.04297H25.0544ZM25.1794 14.875H23.5388V15.125H25.1794V14.875ZM23.6638 15V0.996094H23.4138V15H23.6638ZM23.5388 1.12109H27.7184V0.871094H23.5388V1.12109ZM27.7184 1.12109C28.3198 1.12109 28.8705 1.19786 29.3716 1.35007L29.4442 1.11087C28.9166 0.950582 28.3411 0.871094 27.7184 0.871094V1.12109ZM29.3734 1.3506C29.8794 1.49609 30.3128 1.7197 30.6759 2.02013L30.8352 1.82753C30.4431 1.50295 29.978 1.26432 29.4424 1.11033L29.3734 1.3506ZM30.6767 2.02079C31.0453 2.32069 31.3332 2.69572 31.5404 3.14779L31.7676 3.04362C31.5451 2.55819 31.234 2.15197 30.8344 1.82686L30.6767 2.02079ZM31.5406 3.14839C31.7463 3.59083 31.8513 4.11574 31.8513 4.72656H32.1013C32.1013 4.08739 31.9914 3.52506 31.7673 3.04302L31.5406 3.14839ZM31.8513 4.72656C31.8513 5.20194 31.7784 5.63646 31.6342 6.03135L31.8691 6.11709C32.0244 5.69167 32.1013 5.22775 32.1013 4.72656H31.8513ZM31.6338 6.03242C31.4956 6.42187 31.295 6.76974 31.0317 7.07685L31.2215 7.23955C31.5052 6.90865 31.7212 6.53386 31.8694 6.11602L31.6338 6.03242ZM31.0308 7.07799C30.7736 7.38538 30.4592 7.64983 30.0863 7.87101L30.2139 8.08602C30.6092 7.85148 30.9459 7.56905 31.2225 7.23842L31.0308 7.07799ZM30.0869 7.87068C29.7203 8.08556 29.3048 8.25398 28.8393 8.37512L28.9023 8.61706C29.3873 8.49082 29.8246 8.31418 30.2133 8.08635L30.0869 7.87068ZM28.7458 8.49609V8.53516H28.9958V8.49609H28.7458ZM28.82 8.64938C29.0462 8.74989 29.2383 8.86495 29.3977 8.99373L29.5548 8.79924C29.3757 8.65458 29.1642 8.52876 28.9216 8.42093L28.82 8.64938ZM29.4018 8.99693C29.5694 9.12105 29.7287 9.27072 29.8794 9.44658L30.0692 9.28389C29.9074 9.09516 29.7347 8.93234 29.5507 8.79604L29.4018 8.99693ZM29.8794 9.44658C30.0313 9.62381 30.1809 9.82733 30.3279 10.0575L30.5386 9.92294C30.3862 9.68439 30.2298 9.47124 30.0692 9.28389L29.8794 9.44658ZM30.3302 10.0609C30.485 10.2867 30.6564 10.5519 30.8445 10.8567L31.0572 10.7254C30.8677 10.4182 30.694 10.1495 30.5364 9.91954L30.3302 10.0609ZM30.8448 10.8572L33.4718 15.0662L33.6839 14.9338L31.0569 10.7248L30.8448 10.8572ZM25.0544 2.48047V7.55859H25.3044V2.48047H25.0544ZM25.1794 7.68359H27.4059V7.43359H25.1794V7.68359ZM27.4059 7.68359C27.8288 7.68359 28.2208 7.61981 28.5809 7.49071L28.4966 7.25538C28.1666 7.37368 27.8034 7.43359 27.4059 7.43359V7.68359ZM28.5802 7.49096C28.9459 7.36232 29.2632 7.17855 29.5304 6.93873L29.3635 6.75267C29.1229 6.96859 28.8348 7.13638 28.4973 7.25513L28.5802 7.49096ZM29.5317 6.93755C29.7991 6.69077 30.0076 6.39293 30.1574 6.0456L29.9279 5.94658C29.7913 6.26332 29.6026 6.53189 29.3622 6.75385L29.5317 6.93755ZM30.1578 6.0448C30.3083 5.68892 30.3825 5.29445 30.3825 4.86328H30.1325C30.1325 5.26544 30.0634 5.62618 29.9275 5.94739L30.1578 6.0448ZM30.3825 4.86328C30.3825 4.08474 30.1271 3.46462 29.6062 3.02015L29.4439 3.21032C29.8996 3.59918 30.1325 4.14442 30.1325 4.86328H30.3825ZM29.6076 3.02132C29.0949 2.57096 28.3609 2.35547 27.4255 2.35547V2.60547C28.326 2.60547 28.9918 2.81316 29.4426 3.20915L29.6076 3.02132ZM27.4255 2.35547H25.1794V2.60547H27.4255V2.35547Z" fill="white"/>
</svg>
