<svg width="40" height="40" viewBox="0 0 40 40" fill="none" xmlns="http://www.w3.org/2000/svg">
<path d="M14.8719 24.1534C14.2704 24.5153 13.5568 24.6962 12.7311 24.6962C11.6148 24.6962 10.7126 24.3343 10.0245 23.6105C9.34151 22.8816 9 21.9387 9 20.7816C9 19.492 9.36954 18.4573 10.1086 17.6774C10.8477 16.8925 11.834 16.5 13.0675 16.5C13.7556 16.5 14.3622 16.6274 14.8872 16.8823V18.1668C14.3061 17.759 13.6843 17.5551 13.0216 17.5551C12.2214 17.5551 11.5639 17.8431 11.0491 18.4191C10.5393 18.99 10.2845 19.7418 10.2845 20.6746C10.2845 21.592 10.524 22.3158 11.0032 22.8459C11.4874 23.376 12.1347 23.6411 12.9452 23.6411C13.6282 23.6411 14.2704 23.4143 14.8719 22.9606V24.1534Z" fill="black"/>
<path d="M20.3005 24.6962C19.1435 24.6962 18.2183 24.3318 17.5251 23.6029C16.837 22.8689 16.493 21.8979 16.493 20.6899C16.493 19.3748 16.8523 18.3477 17.571 17.6086C18.2897 16.8695 19.2607 16.5 20.484 16.5C21.6513 16.5 22.5611 16.8593 23.2135 17.578C23.8711 18.2967 24.1998 19.2932 24.1998 20.5675C24.1998 21.8163 23.8456 22.8179 23.1371 23.5723C22.4337 24.3216 21.4882 24.6962 20.3005 24.6962ZM20.3923 17.5551C19.5869 17.5551 18.9498 17.8304 18.4808 18.3808C18.0119 18.9262 17.7774 19.6806 17.7774 20.644C17.7774 21.5717 18.0145 22.3031 18.4885 22.8383C18.9625 23.3735 19.5971 23.6411 20.3923 23.6411C21.2027 23.6411 21.8246 23.3786 22.2578 22.8536C22.6962 22.3286 22.9154 21.5819 22.9154 20.6134C22.9154 19.6347 22.6962 18.8804 22.2578 18.3503C21.8246 17.8202 21.2027 17.5551 20.3923 17.5551Z" fill="black"/>
<path d="M25.9891 24.2298V22.8842C26.6721 23.3888 27.4239 23.6411 28.2446 23.6411C29.3456 23.6411 29.8961 23.2741 29.8961 22.5401C29.8961 22.3311 29.8476 22.1553 29.7508 22.0126C29.659 21.8647 29.5316 21.7348 29.3685 21.6226C29.2105 21.5105 29.0219 21.4111 28.8027 21.3244C28.5886 21.2327 28.3567 21.1384 28.107 21.0416C27.7604 20.9039 27.4545 20.7663 27.1895 20.6287C26.9295 20.486 26.7103 20.328 26.5319 20.1547C26.3586 19.9763 26.2261 19.7749 26.1344 19.5506C26.0477 19.3264 26.0044 19.0639 26.0044 18.7631C26.0044 18.3961 26.0885 18.0725 26.2567 17.7921C26.4249 17.5067 26.6492 17.2697 26.9295 17.0811C27.2099 16.8874 27.5284 16.7421 27.8852 16.6453C28.2471 16.5484 28.6192 16.5 29.0015 16.5C29.6794 16.5 30.286 16.6172 30.8212 16.8517V18.1209C30.2452 17.7437 29.5826 17.5551 28.8333 17.5551C28.5988 17.5551 28.3873 17.5831 28.1987 17.6392C28.0101 17.6902 27.847 17.7641 27.7094 17.8609C27.5769 17.9578 27.4724 18.075 27.3959 18.2126C27.3246 18.3452 27.2889 18.493 27.2889 18.6561C27.2889 18.86 27.3246 19.0307 27.3959 19.1684C27.4724 19.306 27.582 19.4283 27.7247 19.5354C27.8674 19.6424 28.0407 19.7392 28.2446 19.8259C28.4485 19.9125 28.6804 20.0068 28.9403 20.1088C29.287 20.2413 29.5979 20.3789 29.8731 20.5216C30.1484 20.6593 30.3828 20.8173 30.5765 20.9957C30.7702 21.169 30.918 21.3703 31.02 21.5997C31.127 21.8291 31.1805 22.1018 31.1805 22.4178C31.1805 22.8052 31.0939 23.1416 30.9206 23.427C30.7524 23.7125 30.5256 23.9495 30.2401 24.1381C29.9547 24.3267 29.6259 24.4668 29.2538 24.5586C28.8817 24.6503 28.4918 24.6962 28.084 24.6962C27.2787 24.6962 26.5804 24.5407 25.9891 24.2298Z" fill="black"/>
</svg>
