<svg width="40" height="40" viewBox="0 0 40 40" fill="none" xmlns="http://www.w3.org/2000/svg">
<path d="M10.8719 24.2316C10.2704 24.5935 9.55685 24.7744 8.73111 24.7744C7.61483 24.7744 6.71264 24.4125 6.02453 23.6887C5.34151 22.9598 5 22.0169 5 20.8598C5 19.5702 5.36954 18.5355 6.10863 17.7556C6.84771 16.9707 7.83401 16.5782 9.06752 16.5782C9.75563 16.5782 10.3622 16.7056 10.8872 16.9605V18.245C10.3061 17.8372 9.68427 17.6333 9.02165 17.6333C8.22139 17.6333 7.56386 17.9213 7.04905 18.4973C6.53934 19.0682 6.28448 19.82 6.28448 20.7528C6.28448 21.6702 6.52405 22.394 7.00318 22.9241C7.48741 23.4542 8.13474 23.7193 8.94519 23.7193C9.62821 23.7193 10.2704 23.4925 10.8719 23.0388V24.2316Z" fill="black"/>
<path d="M16.3005 24.7744C15.1435 24.7744 14.2183 24.41 13.5251 23.6811C12.837 22.9471 12.493 21.9761 12.493 20.768C12.493 19.453 12.8523 18.4259 13.571 17.6868C14.2897 16.9477 15.2607 16.5782 16.484 16.5782C17.6513 16.5782 18.5611 16.9375 19.2135 17.6562C19.8711 18.3749 20.1998 19.3714 20.1998 20.6457C20.1998 21.8945 19.8456 22.8961 19.1371 23.6505C18.4337 24.3998 17.4882 24.7744 16.3005 24.7744ZM16.3923 17.6333C15.5869 17.6333 14.9498 17.9086 14.4808 18.459C14.0119 19.0044 13.7774 19.7588 13.7774 20.7222C13.7774 21.6499 14.0145 22.3813 14.4885 22.9165C14.9625 23.4517 15.5971 23.7193 16.3923 23.7193C17.2027 23.7193 17.8246 23.4568 18.2578 22.9318C18.6962 22.4068 18.9154 21.6601 18.9154 20.6916C18.9154 19.7129 18.6962 18.9586 18.2578 18.4285C17.8246 17.8984 17.2027 17.6333 16.3923 17.6333Z" fill="black"/>
<path d="M21.9891 24.308V22.9624C22.6721 23.467 23.4239 23.7193 24.2446 23.7193C25.3456 23.7193 25.8961 23.3523 25.8961 22.6183C25.8961 22.4093 25.8476 22.2335 25.7508 22.0908C25.659 21.9429 25.5316 21.813 25.3685 21.7008C25.2105 21.5887 25.0219 21.4893 24.8027 21.4026C24.5886 21.3109 24.3567 21.2166 24.107 21.1198C23.7604 20.9821 23.4545 20.8445 23.1895 20.7069C22.9295 20.5642 22.7103 20.4062 22.5319 20.2328C22.3586 20.0544 22.2261 19.8531 22.1344 19.6288C22.0477 19.4046 22.0044 19.1421 22.0044 18.8413C22.0044 18.4743 22.0885 18.1507 22.2567 17.8703C22.4249 17.5849 22.6492 17.3479 22.9295 17.1593C23.2099 16.9656 23.5284 16.8203 23.8852 16.7235C24.2471 16.6266 24.6192 16.5782 25.0015 16.5782C25.6794 16.5782 26.286 16.6954 26.8212 16.9299V18.1991C26.2452 17.8219 25.5826 17.6333 24.8333 17.6333C24.5988 17.6333 24.3873 17.6613 24.1987 17.7174C24.0101 17.7684 23.847 17.8423 23.7094 17.9391C23.5769 18.036 23.4724 18.1532 23.3959 18.2908C23.3246 18.4234 23.2889 18.5712 23.2889 18.7343C23.2889 18.9382 23.3246 19.1089 23.3959 19.2466C23.4724 19.3842 23.582 19.5065 23.7247 19.6135C23.8674 19.7206 24.0407 19.8174 24.2446 19.9041C24.4485 19.9907 24.6804 20.085 24.9403 20.187C25.287 20.3195 25.5979 20.4571 25.8731 20.5998C26.1484 20.7375 26.3828 20.8955 26.5765 21.0739C26.7702 21.2472 26.918 21.4485 27.02 21.6779C27.127 21.9073 27.1805 22.18 27.1805 22.496C27.1805 22.8834 27.0939 23.2198 26.9206 23.5052C26.7524 23.7907 26.5256 24.0277 26.2401 24.2163C25.9547 24.4049 25.6259 24.545 25.2538 24.6368C24.8817 24.7285 24.4918 24.7744 24.084 24.7744C23.2787 24.7744 22.5804 24.6189 21.9891 24.308Z" fill="black"/>
<path d="M35.8739 24.5909H34.62V20.0799C34.62 18.4488 34.0134 17.6333 32.8003 17.6333C32.1886 17.6333 31.6738 17.8703 31.2559 18.3444C30.8379 18.8133 30.6289 19.4173 30.6289 20.1564V24.5909H29.375V13H30.6289V18.0615H30.6595C31.261 17.0726 32.1173 16.5782 33.2285 16.5782C34.9921 16.5782 35.8739 17.641 35.8739 19.7665V24.5909Z" fill="black"/>
</svg>
