<svg width="40" height="40" viewBox="0 0 40 40" fill="none" xmlns="http://www.w3.org/2000/svg">
<path d="M14.8719 24.2865C14.2704 24.6484 13.5568 24.8294 12.7311 24.8294C11.6148 24.8294 10.7126 24.4675 10.0245 23.7437C9.34151 23.0148 9 22.0718 9 20.9148C9 19.6252 9.36954 18.5905 10.1086 17.8106C10.8477 17.0256 11.834 16.6332 13.0675 16.6332C13.7556 16.6332 14.3622 16.7606 14.8872 17.0154V18.2999C14.3061 17.8922 13.6843 17.6883 13.0216 17.6883C12.2214 17.6883 11.5639 17.9763 11.0491 18.5522C10.5393 19.1231 10.2845 19.8749 10.2845 20.8077C10.2845 21.7252 10.524 22.449 11.0032 22.9791C11.4874 23.5092 12.1347 23.7743 12.9452 23.7743C13.6282 23.7743 14.2704 23.5474 14.8719 23.0938V24.2865Z" fill="black"/>
<path d="M20.3005 24.8294C19.1435 24.8294 18.2183 24.4649 17.5251 23.736C16.837 23.002 16.493 22.031 16.493 20.823C16.493 19.5079 16.8523 18.4809 17.571 17.7418C18.2897 17.0027 19.2607 16.6332 20.484 16.6332C21.6513 16.6332 22.5611 16.9925 23.2135 17.7112C23.8711 18.4299 24.1998 19.4264 24.1998 20.7007C24.1998 21.9495 23.8456 22.9511 23.1371 23.7054C22.4337 24.4547 21.4882 24.8294 20.3005 24.8294ZM20.3923 17.6883C19.5869 17.6883 18.9498 17.9635 18.4808 18.514C18.0119 19.0594 17.7774 19.8138 17.7774 20.7771C17.7774 21.7048 18.0145 22.4363 18.4885 22.9715C18.9625 23.5067 19.5971 23.7743 20.3923 23.7743C21.2027 23.7743 21.8246 23.5118 22.2578 22.9867C22.6962 22.4617 22.9154 21.715 22.9154 20.7466C22.9154 19.7679 22.6962 19.0135 22.2578 18.4834C21.8246 17.9533 21.2027 17.6883 20.3923 17.6883Z" fill="black"/>
<path d="M30.0948 24.5694C29.7992 24.7325 29.4093 24.8141 28.9251 24.8141C27.5539 24.8141 26.8684 24.0495 26.8684 22.5204V17.8871H25.5227V16.8167H26.8684V14.9052L28.1223 14.5V16.8167H30.0948V17.8871H28.1223V22.2986C28.1223 22.8236 28.2115 23.1983 28.3899 23.4226C28.5683 23.6468 28.8639 23.759 29.2768 23.759C29.5928 23.759 29.8655 23.6723 30.0948 23.499V24.5694Z" fill="black"/>
</svg>
