<svg width="40" height="40" viewBox="0 0 40 40" fill="none" xmlns="http://www.w3.org/2000/svg">
<path d="M15.8719 24.1534C15.2704 24.5153 14.5568 24.6962 13.7311 24.6962C12.6148 24.6962 11.7126 24.3343 11.0245 23.6105C10.3415 22.8816 10 21.9387 10 20.7816C10 19.492 10.3695 18.4573 11.1086 17.6774C11.8477 16.8925 12.834 16.5 14.0675 16.5C14.7556 16.5 15.3622 16.6274 15.8872 16.8823V18.1668C15.3061 17.759 14.6843 17.5551 14.0216 17.5551C13.2214 17.5551 12.5639 17.8431 12.0491 18.4191C11.5393 18.99 11.2845 19.7418 11.2845 20.6746C11.2845 21.592 11.524 22.3158 12.0032 22.8459C12.4874 23.376 13.1347 23.6411 13.9452 23.6411C14.6282 23.6411 15.2704 23.4143 15.8719 22.9606V24.1534Z" fill="black"/>
<path d="M17.5541 24.2298V22.8842C18.2371 23.3888 18.989 23.6411 19.8096 23.6411C20.9106 23.6411 21.4611 23.2741 21.4611 22.5401C21.4611 22.3311 21.4127 22.1553 21.3158 22.0126C21.2241 21.8647 21.0966 21.7348 20.9335 21.6226C20.7755 21.5105 20.5869 21.4111 20.3677 21.3244C20.1537 21.2327 19.9217 21.1384 19.672 21.0416C19.3254 20.9039 19.0196 20.7663 18.7545 20.6287C18.4945 20.486 18.2754 20.328 18.097 20.1547C17.9237 19.9763 17.7911 19.7749 17.6994 19.5506C17.6127 19.3264 17.5694 19.0639 17.5694 18.7631C17.5694 18.3961 17.6535 18.0725 17.8217 17.7921C17.9899 17.5067 18.2142 17.2697 18.4945 17.0811C18.7749 16.8874 19.0935 16.7421 19.4503 16.6453C19.8122 16.5484 20.1843 16.5 20.5665 16.5C21.2445 16.5 21.851 16.6172 22.3862 16.8517V18.1209C21.8102 17.7437 21.1476 17.5551 20.3983 17.5551C20.1639 17.5551 19.9523 17.5831 19.7637 17.6392C19.5751 17.6902 19.412 17.7641 19.2744 17.8609C19.1419 17.9578 19.0374 18.075 18.9609 18.2126C18.8896 18.3452 18.8539 18.493 18.8539 18.6561C18.8539 18.86 18.8896 19.0307 18.9609 19.1684C19.0374 19.306 19.147 19.4283 19.2897 19.5354C19.4324 19.6424 19.6057 19.7392 19.8096 19.8259C20.0135 19.9125 20.2454 20.0068 20.5054 20.1088C20.852 20.2413 21.1629 20.3789 21.4381 20.5216C21.7134 20.6593 21.9479 20.8173 22.1416 20.9957C22.3352 21.169 22.4831 21.3703 22.585 21.5997C22.692 21.8291 22.7456 22.1018 22.7456 22.4178C22.7456 22.8052 22.6589 23.1416 22.4856 23.427C22.3174 23.7125 22.0906 23.9495 21.8051 24.1381C21.5197 24.3267 21.1909 24.4668 20.8188 24.5586C20.4468 24.6503 20.0568 24.6962 19.6491 24.6962C18.8437 24.6962 18.1454 24.5407 17.5541 24.2298Z" fill="black"/>
<path d="M30.2768 24.1534C29.6753 24.5153 28.9617 24.6962 28.136 24.6962C27.0197 24.6962 26.1175 24.3343 25.4294 23.6105C24.7464 22.8816 24.4048 21.9387 24.4048 20.7816C24.4048 19.492 24.7744 18.4573 25.5135 17.6774C26.2526 16.8925 27.2389 16.5 28.4724 16.5C29.1605 16.5 29.767 16.6274 30.292 16.8823V18.1668C29.711 17.759 29.0891 17.5551 28.4265 17.5551C27.6262 17.5551 26.9687 17.8431 26.4539 18.4191C25.9442 18.99 25.6893 19.7418 25.6893 20.6746C25.6893 21.592 25.9289 22.3158 26.408 22.8459C26.8923 23.376 27.5396 23.6411 28.35 23.6411C29.0331 23.6411 29.6753 23.4143 30.2768 22.9606V24.1534Z" fill="black"/>
</svg>
