<svg width="40" height="40" viewBox="0 0 40 40" fill="none" xmlns="http://www.w3.org/2000/svg">
<path fill-rule="evenodd" clip-rule="evenodd" d="M10 18.8159H11.5V19.8159H11V20.3159H10V18.8159ZM10 29.3159V30.8159H11.5V29.8159H11V29.3159H10ZM20.5 30.8159H22V29.3159H21V29.8159H20.5V30.8159ZM22 20.3159V18.8159H20.5V19.8159H21V20.3159H22ZM13 18.8159V20.3159H15V18.8159H13ZM17 18.8159V20.3159H19V18.8159H17ZM22 21.8159H20.5V23.8159H22V21.8159ZM22 25.8159H20.5V27.8159H22V25.8159ZM19 30.8159V29.3159H17V30.8159H19ZM15 30.8159V29.3159H13V30.8159H15ZM10 27.8159H11.5V25.8159H10V27.8159ZM10 23.8159H11.5V21.8159H10V23.8159Z" fill="black"/>
<path d="M31 18.5125C31 19.0357 30.9108 19.5131 30.7325 19.9447C30.559 20.3709 30.3108 20.7377 29.988 21.0452C29.6699 21.3473 29.2867 21.5819 28.8386 21.7492C28.3904 21.9164 27.8964 22 27.3566 22C26.3687 22 25.5831 21.7896 25 21.3688V19.9447C25.6988 20.5597 26.4988 20.8672 27.4 20.8672C27.7614 20.8672 28.0867 20.8159 28.3759 20.7134C28.6699 20.6109 28.9205 20.4626 29.1277 20.2684C29.3398 20.0742 29.5012 19.8395 29.612 19.5644C29.7277 19.2893 29.7855 18.9791 29.7855 18.6339C29.7855 17.118 28.8217 16.3601 26.894 16.3601H26.0337V15.2353H26.8506C28.5566 15.2353 29.4096 14.5233 29.4096 13.0991C29.4096 11.7829 28.759 11.1247 27.4578 11.1247C26.7253 11.1247 26.0386 11.3999 25.3976 11.9501V10.6635C26.0578 10.2212 26.8434 10 27.7542 10C28.188 10 28.5807 10.0674 28.9325 10.2023C29.2843 10.3372 29.5855 10.526 29.8361 10.7687C30.0867 11.0115 30.2795 11.3028 30.4145 11.6426C30.5542 11.9825 30.6241 12.3574 30.6241 12.7674C30.6241 14.294 29.9349 15.2758 28.5566 15.7127V15.7451C28.9084 15.7883 29.2337 15.8854 29.5325 16.0364C29.8313 16.1821 30.0892 16.3736 30.306 16.6109C30.5229 16.8483 30.6916 17.1288 30.812 17.4525C30.9373 17.7707 31 18.1241 31 18.5125Z" fill="black"/>
</svg>
