<svg width="40" height="40" viewBox="0 0 40 40" fill="none" xmlns="http://www.w3.org/2000/svg">
<path d="M8.30469 20.5243H9.93438L12.1548 27.6237H12.328L16.4124 11.123H21.0978V12.6H17.6347L13.3669 29.3552H11.1974L8.30469 20.5243Z" fill="black"/>
<path d="M8 17.8896V16.5469C8.46875 16.8887 9.01562 17.0596 9.64062 17.0596C10.0345 17.0596 10.3405 16.9749 10.5586 16.8057C10.7799 16.6364 10.8906 16.4004 10.8906 16.0977C10.8906 15.7852 10.7539 15.5443 10.4805 15.375C10.2103 15.2057 9.83757 15.1211 9.3623 15.1211H8.71289V13.9395H9.31348C10.2249 13.9395 10.6807 13.6367 10.6807 13.0312C10.6807 12.4616 10.3307 12.1768 9.63086 12.1768C9.16211 12.1768 8.70638 12.3281 8.26367 12.6309V11.3711C8.75521 11.1237 9.32812 11 9.98242 11C10.6986 11 11.2552 11.1611 11.6523 11.4834C12.0527 11.8057 12.2529 12.224 12.2529 12.7383C12.2529 13.653 11.7891 14.2259 10.8613 14.457V14.4814C11.3561 14.5433 11.7467 14.724 12.0332 15.0234C12.3197 15.3197 12.4629 15.6842 12.4629 16.1172C12.4629 16.7715 12.2236 17.2891 11.7451 17.6699C11.2666 18.0508 10.6058 18.2412 9.7627 18.2412C9.04004 18.2412 8.45247 18.124 8 17.8896Z" fill="black"/>
<path fill-rule="evenodd" clip-rule="evenodd" d="M31.6365 12.6191H16.4087V11.1191H31.6365V12.6191Z" fill="black"/>
<path fill-rule="evenodd" clip-rule="evenodd" d="M19.4434 17.1777H20.9434V18.1777H20.4434V18.6777H19.4434V17.1777ZM19.4434 27.6777V29.1777H20.9434V28.1777H20.4434V27.6777H19.4434ZM29.9434 29.1777H31.4434V27.6777H30.4434V28.1777H29.9434V29.1777ZM31.4434 18.6777V17.1777H29.9434V18.1777H30.4434V18.6777H31.4434ZM22.4434 17.1777V18.6777H24.4434V17.1777H22.4434ZM26.4434 17.1777V18.6777H28.4434V17.1777H26.4434ZM31.4434 20.1777H29.9434V22.1777H31.4434V20.1777ZM31.4434 24.1777H29.9434V26.1777H31.4434V24.1777ZM28.4434 29.1777V27.6777H26.4434V29.1777H28.4434ZM24.4434 29.1777V27.6777H22.4434V29.1777H24.4434ZM19.4434 26.1777H20.9434V24.1777H19.4434V26.1777ZM19.4434 22.1777H20.9434V20.1777H19.4434V22.1777Z" fill="black"/>
</svg>
