<svg width="32" height="14" viewBox="0 0 32 14" fill="none" xmlns="http://www.w3.org/2000/svg">
<path d="M0.169743 13V0.396484H3.65021C8.09162 0.396484 10.3123 2.44434 10.3123 6.54004C10.3123 8.48535 9.69416 10.0498 8.45783 11.2334C7.22736 12.4111 5.57795 13 3.50959 13H0.169743ZM1.64631 1.73242V11.6641H3.52716C5.17951 11.6641 6.46564 11.2217 7.38556 10.3369C8.30548 9.45215 8.76545 8.19824 8.76545 6.5752C8.76545 3.34668 7.04865 1.73242 3.61506 1.73242H1.64631ZM19.7612 13H13.0815V0.396484H19.48V1.73242H14.5581V5.9248H19.1108V7.25195H14.5581V11.6641H19.7612V13ZM31.8996 12.1387C30.634 12.8535 29.2277 13.2109 27.6808 13.2109C25.882 13.2109 24.426 12.6309 23.3127 11.4707C22.2053 10.3105 21.6515 8.77539 21.6515 6.86523C21.6515 4.91406 22.2668 3.31445 23.4972 2.06641C24.7336 0.8125 26.298 0.185547 28.1906 0.185547C29.5617 0.185547 30.7131 0.408203 31.6447 0.853516V2.48828C30.6252 1.84375 29.4181 1.52148 28.0236 1.52148C26.6115 1.52148 25.4543 2.00781 24.5519 2.98047C23.6496 3.95312 23.1984 5.21289 23.1984 6.75977C23.1984 8.35352 23.6174 9.60742 24.4553 10.5215C25.2931 11.4297 26.4299 11.8838 27.8654 11.8838C28.8498 11.8838 29.7023 11.6875 30.423 11.2949V7.76172H27.6633V6.42578H31.8996V12.1387Z" fill="#111111"/>
</svg>
