<svg width="40" height="40" viewBox="0 0 40 40" fill="none" xmlns="http://www.w3.org/2000/svg">
<path fill-rule="evenodd" clip-rule="evenodd" d="M21.585 6.77197H23.085V7.60531H22.4183V8.27197H21.585V6.77197ZM21.585 15.272V16.772H23.085V15.9386H22.4183V15.272H21.585ZM30.085 16.772H31.585V15.272H30.7516V15.9386H30.085V16.772ZM31.585 8.27197V6.77197H30.085V7.60531H30.7516V8.27197H31.585ZM24.085 6.77197V8.27197H25.7516V6.77197H24.085ZM27.4183 6.77197V8.27197H29.085V6.77197H27.4183ZM31.585 9.27197H30.085V10.9386H31.585V9.27197ZM31.585 12.6053H30.085V14.272H31.585V12.6053ZM29.085 16.772V15.272H27.4183V16.772H29.085ZM25.7516 16.772V15.272H24.085V16.772H25.7516ZM21.585 14.272H23.085V12.6053H21.585V14.272ZM21.585 10.9386H23.085V9.27197H21.585V10.9386Z" fill="black"/>
<path d="M16.7363 32.7837C16.6953 32.9712 16.6543 33.1968 16.6133 33.4604C16.5781 33.7241 16.5459 33.9907 16.5166 34.2603C16.4873 34.5239 16.4609 34.7729 16.4375 35.0073C16.4199 35.2417 16.4111 35.4233 16.4111 35.5522H14.917C14.917 35.4526 14.9229 35.3208 14.9346 35.1567C14.9521 34.9868 14.9697 34.811 14.9873 34.6294C15.0107 34.4478 15.0342 34.2749 15.0576 34.1108C15.0811 33.9409 15.1016 33.8032 15.1191 33.6978H15.084C14.873 34.0376 14.6621 34.3394 14.4512 34.603C14.2402 34.8608 14.0176 35.0776 13.7832 35.2534C13.5488 35.4233 13.2998 35.5522 13.0361 35.6401C12.7725 35.728 12.4824 35.772 12.166 35.772C11.7559 35.772 11.3867 35.6987 11.0586 35.5522C10.7305 35.4058 10.4492 35.1919 10.2148 34.9106C9.98633 34.6235 9.81055 34.272 9.6875 33.856C9.56445 33.4341 9.50293 32.9507 9.50293 32.4058C9.50293 31.9722 9.54688 31.521 9.63477 31.0522C9.72852 30.5835 9.86914 30.1235 10.0566 29.6724C10.25 29.2212 10.4932 28.7935 10.7861 28.3892C11.0791 27.9849 11.4277 27.6304 11.832 27.3257C12.2363 27.021 12.6992 26.7808 13.2207 26.605C13.7422 26.4233 14.3252 26.3325 14.9697 26.3325C15.2979 26.3325 15.6025 26.356 15.8838 26.4028C16.165 26.4438 16.4082 26.4878 16.6133 26.5347L17.5273 22.228H18.9512L16.7363 32.7837ZM16.3584 27.7739C16.1357 27.7095 15.9014 27.6597 15.6553 27.6245C15.415 27.5835 15.1572 27.563 14.8818 27.563C14.3721 27.563 13.9209 27.6421 13.5283 27.8003C13.1416 27.9585 12.8018 28.1694 12.5088 28.4331C12.2217 28.6968 11.9785 28.9985 11.7793 29.3384C11.5859 29.6724 11.4277 30.0181 11.3047 30.3755C11.1875 30.7271 11.1025 31.0757 11.0498 31.4214C11.0029 31.7612 10.9795 32.0688 10.9795 32.3442C10.9795 32.6724 11.0059 32.9712 11.0586 33.2407C11.1172 33.5103 11.208 33.7417 11.3311 33.9351C11.46 34.1284 11.624 34.2778 11.8232 34.3833C12.0225 34.4888 12.2627 34.5415 12.5439 34.5415C12.8369 34.5415 13.1094 34.48 13.3613 34.3569C13.6191 34.2339 13.8594 34.0669 14.082 33.856C14.3047 33.645 14.5068 33.4019 14.6885 33.1265C14.8701 32.8511 15.0342 32.5581 15.1807 32.2476C15.3271 31.937 15.4502 31.6235 15.5498 31.3071C15.6553 30.9849 15.7402 30.6772 15.8047 30.3843L16.3584 27.7739Z" fill="black"/>
<path d="M25.1558 31.1577L27.23 35.5522L25.6392 35.5698L24.5054 32.7485C24.4703 32.6548 24.4205 32.5288 24.356 32.3706C24.2974 32.2124 24.2417 32.0659 24.189 31.9312H24.1451C24.1041 31.9897 24.0542 32.0571 23.9957 32.1333C23.9429 32.2036 23.8902 32.2739 23.8375 32.3442C23.7847 32.4146 23.732 32.4819 23.6792 32.5464C23.6324 32.605 23.5914 32.6577 23.5562 32.7046L21.2007 35.5522H19.4869L23.5386 31.0698L21.5171 26.5522H23.108L24.189 29.4175C24.2417 29.5581 24.2945 29.7104 24.3472 29.8745C24.4 30.0386 24.441 30.1675 24.4703 30.2612H24.5054C24.5406 30.2202 24.5816 30.1704 24.6285 30.1118C24.6753 30.0474 24.7251 29.98 24.7779 29.9097C24.8306 29.8394 24.8834 29.769 24.9361 29.6987C24.9947 29.6284 25.0503 29.564 25.1031 29.5054L27.5464 26.5522H29.19L25.1558 31.1577Z" fill="black"/>
<path d="M8 19.8857H32" stroke="black"/>
<path d="M17.2334 14.5557C17.1924 14.7432 17.1514 14.9688 17.1104 15.2324C17.0752 15.4961 17.043 15.7627 17.0137 16.0322C16.9844 16.2959 16.958 16.5449 16.9346 16.7793C16.917 17.0137 16.9082 17.1953 16.9082 17.3242H15.4141C15.4141 17.2246 15.4199 17.0928 15.4316 16.9287C15.4492 16.7588 15.4668 16.583 15.4844 16.4014C15.5078 16.2197 15.5312 16.0469 15.5547 15.8828C15.5781 15.7129 15.5986 15.5752 15.6162 15.4697H15.5811C15.3701 15.8096 15.1592 16.1113 14.9482 16.375C14.7373 16.6328 14.5146 16.8496 14.2803 17.0254C14.0459 17.1953 13.7969 17.3242 13.5332 17.4121C13.2695 17.5 12.9795 17.5439 12.6631 17.5439C12.2529 17.5439 11.8838 17.4707 11.5557 17.3242C11.2275 17.1777 10.9463 16.9639 10.7119 16.6826C10.4834 16.3955 10.3076 16.0439 10.1846 15.6279C10.0615 15.2061 10 14.7227 10 14.1777C10 13.7441 10.0439 13.293 10.1318 12.8242C10.2256 12.3555 10.3662 11.8955 10.5537 11.4443C10.7471 10.9932 10.9902 10.5654 11.2832 10.1611C11.5762 9.75684 11.9248 9.40234 12.3291 9.09766C12.7334 8.79297 13.1963 8.55273 13.7178 8.37695C14.2393 8.19531 14.8223 8.10449 15.4668 8.10449C15.7949 8.10449 16.0996 8.12793 16.3809 8.1748C16.6621 8.21582 16.9053 8.25977 17.1104 8.30664L18.0244 4H19.4482L17.2334 14.5557ZM16.8555 9.5459C16.6328 9.48145 16.3984 9.43164 16.1523 9.39648C15.9121 9.35547 15.6543 9.33496 15.3789 9.33496C14.8691 9.33496 14.418 9.41406 14.0254 9.57227C13.6387 9.73047 13.2988 9.94141 13.0059 10.2051C12.7188 10.4688 12.4756 10.7705 12.2764 11.1104C12.083 11.4443 11.9248 11.79 11.8018 12.1475C11.6846 12.499 11.5996 12.8477 11.5469 13.1934C11.5 13.5332 11.4766 13.8408 11.4766 14.1162C11.4766 14.4443 11.5029 14.7432 11.5557 15.0127C11.6143 15.2822 11.7051 15.5137 11.8281 15.707C11.957 15.9004 12.1211 16.0498 12.3203 16.1553C12.5195 16.2607 12.7598 16.3135 13.041 16.3135C13.334 16.3135 13.6064 16.252 13.8584 16.1289C14.1162 16.0059 14.3564 15.8389 14.5791 15.6279C14.8018 15.417 15.0039 15.1738 15.1855 14.8984C15.3672 14.623 15.5312 14.3301 15.6777 14.0195C15.8242 13.709 15.9473 13.3955 16.0469 13.0791C16.1523 12.7568 16.2373 12.4492 16.3018 12.1562L16.8555 9.5459Z" fill="black"/>
</svg>
