<svg width="40" height="40" viewBox="0 0 40 40" fill="none" xmlns="http://www.w3.org/2000/svg">
<path fill-rule="evenodd" clip-rule="evenodd" d="M20.666 6.77197H22.166V7.60531H21.4993V8.27197H20.666V6.77197ZM20.666 15.272V16.772H22.166V15.9386H21.4993V15.272H20.666ZM29.166 16.772H30.666V15.272H29.8327V15.9386H29.166V16.772ZM30.666 8.27197V6.77197H29.166V7.60531H29.8327V8.27197H30.666ZM23.166 6.77197V8.27197H24.8327V6.77197H23.166ZM26.4993 6.77197V8.27197H28.166V6.77197H26.4993ZM30.666 9.27197H29.166V10.9386H30.666V9.27197ZM30.666 12.6053H29.166V14.272H30.666V12.6053ZM28.166 16.772V15.272H26.4993V16.772H28.166ZM24.8327 16.772V15.272H23.166V16.772H24.8327ZM20.666 14.272H22.166V12.6053H20.666V14.272ZM20.666 10.9386H22.166V9.27197H20.666V10.9386Z" fill="black"/>
<path d="M16.3145 14.5557C16.2734 14.7432 16.2324 14.9688 16.1914 15.2324C16.1562 15.4961 16.124 15.7627 16.0947 16.0322C16.0654 16.2959 16.0391 16.5449 16.0156 16.7793C15.998 17.0137 15.9893 17.1953 15.9893 17.3242H14.4951C14.4951 17.2246 14.501 17.0928 14.5127 16.9287C14.5303 16.7588 14.5479 16.583 14.5654 16.4014C14.5889 16.2197 14.6123 16.0469 14.6357 15.8828C14.6592 15.7129 14.6797 15.5752 14.6973 15.4697H14.6621C14.4512 15.8096 14.2402 16.1113 14.0293 16.375C13.8184 16.6328 13.5957 16.8496 13.3613 17.0254C13.127 17.1953 12.8779 17.3242 12.6143 17.4121C12.3506 17.5 12.0605 17.5439 11.7441 17.5439C11.334 17.5439 10.9648 17.4707 10.6367 17.3242C10.3086 17.1777 10.0273 16.9639 9.79297 16.6826C9.56445 16.3955 9.38867 16.0439 9.26562 15.6279C9.14258 15.2061 9.08105 14.7227 9.08105 14.1777C9.08105 13.7441 9.125 13.293 9.21289 12.8242C9.30664 12.3555 9.44727 11.8955 9.63477 11.4443C9.82812 10.9932 10.0713 10.5654 10.3643 10.1611C10.6572 9.75684 11.0059 9.40234 11.4102 9.09766C11.8145 8.79297 12.2773 8.55273 12.7988 8.37695C13.3203 8.19531 13.9033 8.10449 14.5479 8.10449C14.876 8.10449 15.1807 8.12793 15.4619 8.1748C15.7432 8.21582 15.9863 8.25977 16.1914 8.30664L17.1055 4H18.5293L16.3145 14.5557ZM15.9365 9.5459C15.7139 9.48145 15.4795 9.43164 15.2334 9.39648C14.9932 9.35547 14.7354 9.33496 14.46 9.33496C13.9502 9.33496 13.499 9.41406 13.1064 9.57227C12.7197 9.73047 12.3799 9.94141 12.0869 10.2051C11.7998 10.4688 11.5566 10.7705 11.3574 11.1104C11.1641 11.4443 11.0059 11.79 10.8828 12.1475C10.7656 12.499 10.6807 12.8477 10.6279 13.1934C10.5811 13.5332 10.5576 13.8408 10.5576 14.1162C10.5576 14.4443 10.584 14.7432 10.6367 15.0127C10.6953 15.2822 10.7861 15.5137 10.9092 15.707C11.0381 15.9004 11.2021 16.0498 11.4014 16.1553C11.6006 16.2607 11.8408 16.3135 12.1221 16.3135C12.415 16.3135 12.6875 16.252 12.9395 16.1289C13.1973 16.0059 13.4375 15.8389 13.6602 15.6279C13.8828 15.417 14.085 15.1738 14.2666 14.8984C14.4482 14.623 14.6123 14.3301 14.7588 14.0195C14.9053 13.709 15.0283 13.3955 15.1279 13.0791C15.2334 12.7568 15.3184 12.4492 15.3828 12.1562L15.9365 9.5459Z" fill="black"/>
<path fill-rule="evenodd" clip-rule="evenodd" d="M20.666 25.6514H22.166V26.4847H21.4993V27.1514H20.666V25.6514ZM20.666 34.1514V35.6514H22.166V34.818H21.4993V34.1514H20.666ZM29.166 35.6514H30.666V34.1514H29.8327V34.818H29.166V35.6514ZM30.666 27.1514V25.6514H29.166V26.4847H29.8327V27.1514H30.666ZM23.166 25.6514V27.1514H24.8327V25.6514H23.166ZM26.4993 25.6514V27.1514H28.166V25.6514H26.4993ZM30.666 28.1514H29.166V29.818H30.666V28.1514ZM30.666 31.4847H29.166V33.1514H30.666V31.4847ZM28.166 35.6514V34.1514H26.4993V35.6514H28.166ZM24.8327 35.6514V34.1514H23.166V35.6514H24.8327ZM20.666 33.1514H22.166V31.4847H20.666V33.1514ZM20.666 29.818H22.166V28.1514H20.666V29.818Z" fill="black"/>
<path d="M16.3145 33.4351C16.2734 33.6226 16.2324 33.8481 16.1914 34.1118C16.1562 34.3755 16.124 34.6421 16.0947 34.9116C16.0654 35.1753 16.0391 35.4243 16.0156 35.6587C15.998 35.8931 15.9893 36.0747 15.9893 36.2036H14.4951C14.4951 36.104 14.501 35.9722 14.5127 35.8081C14.5303 35.6382 14.5479 35.4624 14.5654 35.2808C14.5889 35.0991 14.6123 34.9263 14.6357 34.7622C14.6592 34.5923 14.6797 34.4546 14.6973 34.3491H14.6621C14.4512 34.689 14.2402 34.9907 14.0293 35.2544C13.8184 35.5122 13.5957 35.729 13.3613 35.9048C13.127 36.0747 12.8779 36.2036 12.6143 36.2915C12.3506 36.3794 12.0605 36.4233 11.7441 36.4233C11.334 36.4233 10.9648 36.3501 10.6367 36.2036C10.3086 36.0571 10.0273 35.8433 9.79297 35.562C9.56445 35.2749 9.38867 34.9233 9.26562 34.5073C9.14258 34.0854 9.08105 33.6021 9.08105 33.0571C9.08105 32.6235 9.125 32.1724 9.21289 31.7036C9.30664 31.2349 9.44727 30.7749 9.63477 30.3237C9.82812 29.8726 10.0713 29.4448 10.3643 29.0405C10.6572 28.6362 11.0059 28.2817 11.4102 27.9771C11.8145 27.6724 12.2773 27.4321 12.7988 27.2563C13.3203 27.0747 13.9033 26.9839 14.5479 26.9839C14.876 26.9839 15.1807 27.0073 15.4619 27.0542C15.7432 27.0952 15.9863 27.1392 16.1914 27.186L17.1055 22.8794H18.5293L16.3145 33.4351ZM15.9365 28.4253C15.7139 28.3608 15.4795 28.311 15.2334 28.2759C14.9932 28.2349 14.7354 28.2144 14.46 28.2144C13.9502 28.2144 13.499 28.2935 13.1064 28.4517C12.7197 28.6099 12.3799 28.8208 12.0869 29.0845C11.7998 29.3481 11.5566 29.6499 11.3574 29.9897C11.1641 30.3237 11.0059 30.6694 10.8828 31.0269C10.7656 31.3784 10.6807 31.7271 10.6279 32.0728C10.5811 32.4126 10.5576 32.7202 10.5576 32.9956C10.5576 33.3237 10.584 33.6226 10.6367 33.8921C10.6953 34.1616 10.7861 34.3931 10.9092 34.5864C11.0381 34.7798 11.2021 34.9292 11.4014 35.0347C11.6006 35.1401 11.8408 35.1929 12.1221 35.1929C12.415 35.1929 12.6875 35.1313 12.9395 35.0083C13.1973 34.8853 13.4375 34.7183 13.6602 34.5073C13.8828 34.2964 14.085 34.0532 14.2666 33.7778C14.4482 33.5024 14.6123 33.2095 14.7588 32.8989C14.9053 32.5884 15.0283 32.2749 15.1279 31.9585C15.2334 31.6362 15.3184 31.3286 15.3828 31.0356L15.9365 28.4253Z" fill="black"/>
<path d="M8 20.2119H32" stroke="black"/>
</svg>
