<svg width="40" height="40" viewBox="0 0 40 40" fill="none" xmlns="http://www.w3.org/2000/svg">
<path d="M20.9823 11.9837L20.9322 12.099L20.9823 11.9837C20.8152 11.9111 20.6349 11.8752 20.4428 11.8749C20.2532 11.868 20.0705 11.9049 19.8963 11.9847C19.7267 12.0625 19.5795 12.1625 19.4565 12.2855C19.3334 12.4086 19.2362 12.553 19.1646 12.7177C19.0919 12.8848 19.0561 13.0651 19.0558 13.2571C19.0489 13.4467 19.0857 13.6294 19.1656 13.8037C19.2433 13.9733 19.3433 14.1204 19.4664 14.2434C19.5895 14.3665 19.7339 14.4638 19.8985 14.5354C20.0656 14.608 20.246 14.6438 20.438 14.6441C20.6276 14.6511 20.8103 14.6142 20.9845 14.5344C21.1542 14.4566 21.3013 14.3566 21.4243 14.2336C21.5474 14.1105 21.6446 13.966 21.7162 13.8014C21.7889 13.6343 21.8247 13.454 21.825 13.262C21.8319 13.0724 21.7951 12.8897 21.7152 12.7154C21.6375 12.5458 21.5375 12.3987 21.4145 12.2757C21.2914 12.1526 21.1469 12.0553 20.9823 11.9837ZM29.8808 20.9377H30.0067V20.8119V19.5531V19.4273H29.8808H11H10.8741V19.5531V20.8119V20.9377H11H29.8808ZM21.7162 27.6474C21.7889 27.4802 21.8247 27.2999 21.825 27.1079C21.8319 26.9183 21.7951 26.7356 21.7152 26.5613C21.6375 26.3917 21.5375 26.2446 21.4145 26.1216C21.2914 25.9985 21.1469 25.9012 20.9823 25.8297C20.8152 25.757 20.6349 25.7212 20.4428 25.7209C20.2532 25.714 20.0705 25.7508 19.8963 25.8307C19.7267 25.9084 19.5795 26.0084 19.4565 26.1314C19.3334 26.2545 19.2362 26.399 19.1646 26.5636C19.0919 26.7307 19.0561 26.911 19.0558 27.1031C19.0489 27.2927 19.0857 27.4753 19.1656 27.6496C19.2433 27.8192 19.3433 27.9663 19.4664 28.0894C19.5895 28.2124 19.7339 28.3097 19.8985 28.3813C20.0656 28.4539 20.246 28.4898 20.438 28.4901C20.6276 28.497 20.8103 28.4602 20.9845 28.3803C21.1542 28.3025 21.3013 28.2025 21.4243 28.0795C21.5474 27.9564 21.6446 27.812 21.7162 27.6474Z" fill="black" stroke="black" stroke-width="0.251744"/>
</svg>
