<svg width="40" height="40" viewBox="0 0 40 40" fill="none" xmlns="http://www.w3.org/2000/svg">
<path d="M24.7207 20.1348H17.6602C17.6862 21.248 17.9857 22.1074 18.5586 22.7129C19.1315 23.3184 19.9193 23.6211 20.9219 23.6211C22.0482 23.6211 23.0833 23.25 24.0273 22.5078V24.0117C23.1484 24.6497 21.9863 24.9688 20.541 24.9688C19.1283 24.9688 18.0182 24.5163 17.2109 23.6113C16.4036 22.6999 16 21.4206 16 19.7734C16 18.2174 16.4395 16.9512 17.3184 15.9746C18.2038 14.9915 19.3008 14.5 20.6094 14.5C21.918 14.5 22.9303 14.9232 23.6465 15.7695C24.3626 16.6159 24.7207 17.791 24.7207 19.2949V20.1348ZM23.0801 18.7773C23.0736 17.8529 22.849 17.1335 22.4062 16.6191C21.9701 16.1048 21.3613 15.8477 20.5801 15.8477C19.8249 15.8477 19.1836 16.1178 18.6562 16.6582C18.1289 17.1986 17.8034 17.9049 17.6797 18.7773H23.0801Z" fill="black"/>
</svg>
