<svg width="40" height="40" viewBox="0 0 40 40" fill="none" xmlns="http://www.w3.org/2000/svg">
<path d="M20.7207 23.2832H13.6602C13.6862 24.3965 13.9857 25.2559 14.5586 25.8613C15.1315 26.4668 15.9193 26.7695 16.9219 26.7695C18.0482 26.7695 19.0833 26.3984 20.0273 25.6562V27.1602C19.1484 27.7982 17.9863 28.1172 16.541 28.1172C15.1283 28.1172 14.0182 27.6647 13.2109 26.7598C12.4036 25.8483 12 24.569 12 22.9219C12 21.3659 12.4395 20.0996 13.3184 19.123C14.2038 18.14 15.3008 17.6484 16.6094 17.6484C17.918 17.6484 18.9303 18.0716 19.6465 18.918C20.3626 19.7643 20.7207 20.9395 20.7207 22.4434V23.2832ZM19.0801 21.9258C19.0736 21.0013 18.849 20.2819 18.4063 19.7676C17.9701 19.2533 17.3613 18.9961 16.5801 18.9961C15.8249 18.9961 15.1836 19.2663 14.6562 19.8066C14.1289 20.347 13.8034 21.0534 13.6797 21.9258H19.0801Z" fill="black"/>
<path fill-rule="evenodd" clip-rule="evenodd" d="M21.1172 12H22.6172V12.875H21.9922V13.5H21.1172V12ZM21.1172 17.5V19H22.6172V18.125H21.9922V17.5H21.1172ZM26.6172 19H28.1172V17.5H27.2422V18.125H26.6172V19ZM28.1172 13.5V12H26.6172V12.875H27.2422V13.5H28.1172ZM23.7422 12V13.5H25.4922V12H23.7422ZM28.1172 14.625H26.6172V16.375H28.1172V14.625ZM25.4922 19V17.5H23.7422V19H25.4922ZM21.1172 16.375H22.6172V14.625H21.1172V16.375Z" fill="black"/>
</svg>
