<svg width="33" height="15" viewBox="0 0 33 15" fill="none" xmlns="http://www.w3.org/2000/svg">
<path d="M8.40461 14.5H0.982731V0.496094H8.09211V1.98047H2.62336V6.63867H7.68195V8.11328H2.62336V13.0156H8.40461V14.5ZM21.0586 14.5H19.0566L15.834 9.13867C15.7363 8.97591 15.6289 8.74479 15.5117 8.44531H15.4727C15.4076 8.59505 15.2969 8.82617 15.1406 9.13867L11.8203 14.5H9.80859L14.4961 7.45898L10.1797 0.496094H12.1914L15.0527 5.41797C15.2415 5.74349 15.4076 6.06901 15.5508 6.39453H15.5898C15.7982 5.96484 15.9805 5.6263 16.1367 5.37891L19.1152 0.496094H21L16.5957 7.43945L21.0586 14.5ZM25.1188 9.20703V14.5H23.4782V0.496094H27.3259C28.8233 0.496094 29.9821 0.860677 30.8024 1.58984C31.6292 2.31901 32.0427 3.34766 32.0427 4.67578C32.0427 6.00391 31.5837 7.09115 30.6657 7.9375C29.7542 8.78385 28.5205 9.20703 26.9645 9.20703H25.1188ZM25.1188 1.98047V7.72266H26.8376C27.9704 7.72266 28.833 7.46549 29.4255 6.95117C30.0244 6.43034 30.3239 5.69792 30.3239 4.75391C30.3239 2.90495 29.2302 1.98047 27.0427 1.98047H25.1188Z" fill="black"/>
</svg>
