<svg width="40" height="40" viewBox="0 0 40 40" fill="none" xmlns="http://www.w3.org/2000/svg">
<path fill-rule="evenodd" clip-rule="evenodd" d="M29.1982 31.2856V29.5713H30.6982V31.2856H29.1982Z" fill="black"/>
<path fill-rule="evenodd" clip-rule="evenodd" d="M9 12.6426H10.5V13.5801H9.9375V14.1426H9V12.6426ZM9 26.1426V27.6426H10.5V26.7051H9.9375V26.1426H9ZM22.5 27.6426H24V26.1426H23.0625V26.7051H22.5V27.6426ZM24 14.1426V12.6426H22.5V13.5801H23.0625V14.1426H24ZM11.8125 12.6426V14.1426H13.6875V12.6426H11.8125ZM15.5625 12.6426V14.1426H17.4375V12.6426H15.5625ZM19.3125 12.6426V14.1426H21.1875V12.6426H19.3125ZM24 15.4551H22.5V17.3301H24V15.4551ZM24 19.2051H22.5V21.0801H24V19.2051ZM24 22.9551H22.5V24.8301H24V22.9551ZM21.1875 27.6426V26.1426H19.3125V27.6426H21.1875ZM17.4375 27.6426V26.1426H15.5625V27.6426H17.4375ZM13.6875 27.6426V26.1426H11.8125V27.6426H13.6875ZM9 24.8301H10.5V22.9551H9V24.8301ZM9 21.0801H10.5V19.2051H9V21.0801ZM9 17.3301H10.5V15.4551H9V17.3301Z" fill="black"/>
<path fill-rule="evenodd" clip-rule="evenodd" d="M29.1982 27L29.1982 9L30.6982 9L30.6982 27L29.1982 27Z" fill="black"/>
</svg>
