<!--?xml version="1.0" standalone="no"?-->

<svg version="1.0" xmlns="http://www.w3.org/2000/svg" width="100%" height="100%" viewBox="0 0 300.000000 206.000000" preserveAspectRatio="xMidYMid meet">
<metadata>
Created by potrace 1.10, written by Peter Selinger 2001-2011
</metadata>
<g transform="translate(0.000000,206.000000) scale(0.100000,-0.100000)" fill="#000000" stroke="none">
<path d="M1665 1931 c-9 -28 1 -41 31 -41 16 0 24 -5 21 -12 -2 -8 -16 -12
-32 -10 -25 3 -27 1 -16 -12 33 -39 74 -8 69 51 -3 35 -6 38 -35 41 -24 2 -33
-1 -38 -17z" class="svg-elem-1"></path>
<path d="M2040 1920 c0 -5 18 -10 40 -10 22 0 40 5 40 10 0 6 -18 10 -40 10
-22 0 -40 -4 -40 -10z" class="svg-elem-2"></path>
<path d="M1903 1893 c-22 -8 -14 -28 16 -40 36 -13 50 6 22 31 -19 17 -19 17
-38 9z" class="svg-elem-3"></path>
<path d="M1113 1878 c-7 -12 -6 -58 2 -66 2 -2 14 3 27 10 12 7 24 14 26 15 6
3 -30 53 -39 53 -4 0 -11 -6 -16 -12z" class="svg-elem-4"></path>
<path d="M617 1863 c-4 -3 -2 -13 5 -20 9 -11 9 -16 -2 -23 -8 -5 -11 -12 -7
-16 3 -4 14 -1 23 6 13 12 17 11 24 0 5 -8 12 -11 16 -7 4 3 2 13 -4 20 -9 10
-9 16 0 25 6 6 8 15 4 19 -4 4 -11 1 -16 -7 -7 -11 -12 -11 -23 -2 -7 7 -17 9
-20 5z" class="svg-elem-5"></path>
<path d="M1370 1840 c0 -17 7 -20 52 -20 l51 0 -22 -24 c-19 -20 -51 -100 -51
-128 0 -4 14 -8 30 -8 28 0 30 2 30 39 0 21 11 58 25 85 38 72 36 76 -45 76
-63 0 -70 -2 -70 -20z" class="svg-elem-6"></path>
<path d="M2169 1821 c-28 -22 -18 -41 11 -23 28 17 40 15 40 -8 0 -13 -7 -20
-20 -20 -11 0 -20 -7 -20 -15 0 -9 9 -15 25 -15 16 0 25 -6 25 -15 0 -24 -31
-31 -46 -10 -18 24 -49 13 -35 -14 14 -24 53 -34 85 -20 31 14 39 44 18 66
-12 12 -13 18 -4 21 20 6 14 40 -10 56 -29 21 -41 20 -69 -3z" class="svg-elem-7"></path>
<path d="M840 1811 c0 -11 -3 -27 -7 -37 -5 -14 -2 -16 20 -10 28 7 46 -9 29
-26 -8 -8 -16 -7 -27 2 -20 17 -32 5 -15 -15 25 -30 80 -12 80 27 0 19 -35 42
-50 33 -6 -3 -10 -1 -10 4 0 6 11 11 25 11 16 0 25 6 25 15 0 10 -11 15 -35
15 -28 0 -35 -4 -35 -19z" class="svg-elem-8"></path>
<path d="M1102 1759 c-12 -24 -24 -60 -27 -79 -5 -31 -3 -29 14 14 11 27 25
54 31 60 15 15 12 -24 -5 -54 -18 -32 -19 -50 -2 -26 13 17 14 17 31 1 17 -17
17 -16 10 21 -4 21 -12 54 -19 73 l-12 35 -21 -45z" class="svg-elem-9"></path>
<path d="M1920 1751 c0 -71 -6 -81 -43 -75 l-32 6 24 -20 c32 -25 75 -13 90
26 9 25 9 25 10 -14 1 -40 0 -42 -36 -47 -21 -4 -40 -2 -43 4 -4 5 -13 7 -21
5 -8 -3 -33 -10 -56 -16 -45 -11 -63 -41 -63 -106 0 -46 17 -43 30 6 11 42 21
47 66 30 15 -6 35 -8 43 -5 12 5 9 10 -14 20 l-30 13 51 1 c50 1 84 21 84 49
0 7 5 12 10 12 16 0 12 45 -11 105 -15 40 -25 55 -40 55 -16 0 -19 -7 -19 -49z" class="svg-elem-10"></path>
<path d="M2385 1783 c6 -5 35 -32 65 -59 44 -39 48 -41 20 -10 -19 21 -48 47
-65 58 -16 12 -25 17 -20 11z" class="svg-elem-11"></path>
<path d="M448 1731 c-32 -29 -33 -32 -33 -108 0 -59 7 -98 29 -161 15 -45 32
-80 37 -77 5 4 5 13 -1 23 -37 67 -63 239 -41 279 6 12 26 30 44 41 30 17 38
18 65 6 19 -8 39 -28 52 -54 12 -23 24 -40 27 -37 9 10 -9 48 -39 83 -40 46
-92 48 -140 5z" class="svg-elem-12"></path>
<path d="M1276 1695 c-5 -18 -13 -25 -31 -25 -13 0 -27 -4 -30 -10 -4 -6 8
-10 29 -10 30 0 35 4 41 31 8 37 0 50 -9 14z" class="svg-elem-13"></path>
<path d="M1762 1678 c2 -18 11 -24 34 -26 29 -3 31 -1 27 22 -4 21 -11 26 -35
26 -25 0 -29 -4 -26 -22z" class="svg-elem-14"></path>
<path d="M2499 1634 l-24 -27 27 17 c15 10 39 16 55 14 27 -3 28 -5 27 -58 -1
-34 -10 -74 -23 -104 -30 -65 -36 -109 -21 -146 12 -29 11 -33 -16 -62 l-29
-31 28 18 c32 20 43 55 28 83 -17 32 -14 53 24 139 36 83 45 149 23 171 -22
22 -73 14 -99 -14z" class="svg-elem-15"></path>
<path d="M2398 1615 c-17 -38 4 -77 40 -73 21 2 27 8 27 28 0 18 -6 26 -22 28
-23 3 -29 13 -16 25 3 4 12 2 20 -5 15 -12 28 -5 18 11 -12 21 -55 12 -67 -14z" class="svg-elem-16"></path>
<path d="M1087 1617 c-11 -29 20 -47 79 -47 59 0 62 -4 38 -39 -14 -19 -14
-25 -3 -32 9 -5 19 1 31 19 21 32 23 48 6 55 -8 3 -6 6 5 6 15 1 16 -6 11 -54
-6 -47 -4 -55 10 -55 13 0 16 11 16 64 0 42 -5 67 -14 75 -7 6 -49 14 -93 18
-68 5 -81 3 -86 -10z" class="svg-elem-17"></path>
<path d="M608 1592 c-16 -10 -28 -25 -28 -35 0 -16 2 -16 25 -1 l25 16 0 -51
c0 -50 -1 -51 -30 -51 -20 0 -30 -5 -30 -15 0 -12 14 -15 70 -15 56 0 70 3 70
15 0 8 -9 15 -20 15 -21 0 -25 21 -21 103 3 42 -13 48 -61 19z" class="svg-elem-18"></path>
<path d="M810 1570 c-18 -18 -20 -33 -19 -122 1 -116 16 -100 18 18 1 98 8
103 144 105 59 1 107 5 107 10 0 5 -52 9 -115 9 -102 0 -117 -2 -135 -20z" class="svg-elem-19"></path>
<path d="M1310 1580 c8 -5 35 -10 60 -10 81 -1 80 1 80 -237 0 -187 -2 -212
-17 -226 -15 -13 -65 -16 -310 -20 l-292 -6 -20 32 c-14 22 -21 27 -21 15 0
-10 9 -27 20 -38 19 -19 33 -20 323 -20 282 0 305 1 320 18 15 16 17 48 17
244 0 267 4 258 -106 258 -48 0 -64 -3 -54 -10z" class="svg-elem-20"></path>
<path d="M1560 1570 c-19 -19 -20 -33 -20 -529 0 -499 0 -509 21 -535 l20 -26
207 0 c137 0 202 4 192 10 -8 5 -96 10 -195 10 -147 0 -185 3 -203 16 l-22 15
0 508 c0 411 3 511 13 520 8 6 46 13 87 16 100 6 101 15 2 15 -69 0 -85 -3
-102 -20z" class="svg-elem-21"></path>
<path d="M1996 1581 c5 -6 49 -11 97 -12 77 -2 89 -4 99 -22 13 -24 18 -1007
5 -1007 -4 0 -22 7 -38 16 -30 15 -31 17 -29 82 3 102 6 97 -49 97 l-48 0 -14
-140 c-17 -173 -17 -159 2 -163 26 -5 54 112 40 164 -24 85 -7 143 29 99 17
-20 24 -123 10 -140 -13 -15 4 -26 65 -41 40 -10 18 -24 -36 -22 -27 0 -53 -2
-56 -6 -3 -3 19 -6 50 -6 50 0 58 3 76 29 21 28 21 40 21 539 l0 511 -22 15
c-17 12 -48 16 -117 16 -60 0 -91 -4 -85 -9z" class="svg-elem-22"></path>
<path d="M1904 1535 c-3 -14 -3 -33 1 -42 7 -17 8 -16 15 2 12 28 12 65 0 65
-5 0 -12 -11 -16 -25z" class="svg-elem-23"></path>
<path d="M2292 1508 c-19 -19 -14 -33 6 -15 9 8 28 17 42 20 22 4 22 4 -5 6
-17 0 -36 -4 -43 -11z" class="svg-elem-24"></path>
<path d="M1710 1457 c-24 -11 -24 -11 14 -15 42 -4 58 4 36 18 -18 12 -19 12
-50 -3z" class="svg-elem-25"></path>
<path d="M310 1450 c0 -5 18 -10 40 -10 22 0 40 5 40 10 0 6 -18 10 -40 10
-22 0 -40 -4 -40 -10z" class="svg-elem-26"></path>
<path d="M1250 1440 c0 -5 14 -10 31 -10 17 0 28 4 24 10 -3 6 -17 10 -31 10
-13 0 -24 -4 -24 -10z" class="svg-elem-27"></path>
<path d="M310 1420 c0 -5 18 -10 40 -10 22 0 40 5 40 10 0 6 -18 10 -40 10
-22 0 -40 -4 -40 -10z" class="svg-elem-28"></path>
<path d="M441 1344 c13 -22 39 -66 57 -99 35 -63 36 -54 5 32 -21 57 -36 79
-66 95 -18 9 -18 7 4 -28z" class="svg-elem-29"></path>
<path d="M2353 1370 c-29 -12 -41 -56 -20 -77 13 -14 13 -17 -4 -34 -25 -25
-24 -35 6 -64 47 -48 134 -20 135 41 0 12 -7 27 -15 34 -12 10 -12 15 1 35 15
23 14 26 -10 50 -26 26 -54 30 -93 15z m67 -35 c14 -17 5 -35 -19 -35 -23 0
-41 19 -34 36 7 18 37 18 53 -1z m-5 -89 c16 -12 17 -16 6 -30 -17 -20 -35
-20 -56 0 -12 12 -13 19 -4 30 15 18 30 18 54 0z" class="svg-elem-30"></path>
<path d="M1000 1330 l0 -30 133 0 134 0 0 30 0 30 -134 0 -133 0 0 -30z" class="svg-elem-31"></path>
<path d="M650 1230 c-8 -16 -8 -20 4 -20 8 0 16 6 19 13 3 9 7 9 17 0 9 -8 5
-17 -19 -39 -17 -15 -31 -31 -31 -36 0 -12 78 -10 85 2 4 6 -6 10 -22 11 l-28
0 23 16 c25 18 29 58 6 67 -27 11 -43 7 -54 -14z" class="svg-elem-32"></path>
<path d="M315 1220 c-18 -30 -24 -77 -14 -114 14 -53 48 -97 117 -152 60 -47
98 -61 47 -18 -82 71 -120 113 -138 153 -17 39 -18 49 -7 82 15 45 37 50 110
24 45 -16 68 -19 57 -8 -13 12 -111 43 -139 43 -15 0 -30 -5 -33 -10z" class="svg-elem-33"></path>
<path d="M2560 1155 c0 -8 -7 -15 -15 -15 -8 0 -15 -4 -15 -10 0 -5 7 -10 15
-10 8 0 15 -7 15 -15 0 -8 5 -15 11 -15 6 0 9 7 5 15 -4 10 1 15 14 15 11 0
20 5 20 10 0 6 -9 10 -21 10 -15 0 -19 5 -15 15 3 8 1 15 -4 15 -6 0 -10 -7
-10 -15z" class="svg-elem-34"></path>
<path d="M1750 1085 l0 -25 134 0 134 0 0 25 0 25 -134 0 -134 0 0 -25z" class="svg-elem-35"></path>
<path d="M2606 1049 c-26 -17 -45 -34 -42 -37 3 -2 21 7 41 22 19 15 43 26 53
24 32 -6 24 -42 -23 -102 -25 -32 -45 -69 -45 -82 0 -26 -19 -39 -77 -54 l-38
-10 44 5 c63 8 81 20 81 56 0 22 13 44 49 82 57 61 68 88 46 111 -23 22 -35
20 -89 -15z" class="svg-elem-36"></path>
<path d="M2456 1015 c-23 -35 -20 -40 10 -10 20 20 29 23 44 15 28 -15 37 -12
14 5 -28 21 -50 18 -68 -10z" class="svg-elem-37"></path>
<path d="M2068 1023 c-22 -5 -23 -19 -3 -27 22 -8 18 -36 -5 -36 -13 0 -18 -5
-13 -15 8 -23 36 -14 44 15 4 14 7 19 8 13 2 -24 21 -13 21 12 0 26 -24 44
-52 38z" class="svg-elem-38"></path>
<path d="M1750 988 l0 -28 134 0 135 0 -3 26 -3 26 -131 1 -132 2 0 -27z" class="svg-elem-39"></path>
<path d="M824 992 c-7 -4 124 -7 290 -7 264 0 304 -2 318 -16 14 -14 17 -48
18 -222 1 -268 20 -247 -218 -247 -97 0 -184 -5 -192 -10 -10 -6 52 -10 185
-10 166 0 204 3 223 16 22 15 22 19 22 243 0 208 -2 229 -18 244 -16 15 -53
17 -318 17 -164 0 -304 -4 -310 -8z" class="svg-elem-40"></path>
<path d="M559 983 c-43 -11 -56 -116 -19 -153 46 -46 110 -4 110 72 0 28 -7
46 -25 63 -24 24 -33 27 -66 18z m45 -39 c9 -23 7 -77 -3 -93 -19 -29 -41 -4
-41 47 0 27 3 52 7 55 11 12 31 7 37 -9z" class="svg-elem-41"></path>
<path d="M2466 940 c-30 -46 -28 -60 9 -52 18 3 25 0 25 -12 0 -9 6 -16 14
-16 17 0 29 42 14 51 -6 4 -8 20 -5 38 10 47 -24 41 -57 -9z" class="svg-elem-42"></path>
<path d="M910 901 c-5 -11 -10 -34 -10 -51 0 -25 -6 -33 -35 -47 -29 -14 -35
-22 -33 -43 2 -19 10 -26 30 -28 22 -3 30 2 40 25 6 15 18 36 26 45 9 11 12
28 9 47 -5 25 -3 29 18 34 21 3 25 0 25 -20 0 -13 -6 -26 -14 -29 -8 -3 -12
-13 -9 -25 9 -31 33 -3 33 38 0 47 -16 73 -45 73 -14 0 -29 -8 -35 -19z" class="svg-elem-43"></path>
<path d="M2027 863 c-11 -13 -29 -28 -40 -33 -22 -9 -22 -9 -1 -9 18 -1 72 55
62 64 -1 2 -11 -8 -21 -22z" class="svg-elem-44"></path>
<path d="M1102 825 l5 -55 -54 0 c-53 0 -53 0 -53 -31 l0 -32 55 6 55 6 -6
-53 -6 -53 31 -5 31 -5 0 57 0 56 52 -1 c50 0 52 1 55 28 2 26 1 27 -53 27
l-54 0 0 55 c0 55 0 55 -31 55 l-31 0 4 -55z m57 -68 c8 -11 6 -20 -9 -37 -17
-19 -20 -20 -20 -6 0 9 -4 15 -9 12 -5 -3 -14 1 -20 8 -10 11 -8 17 6 25 24
14 38 14 52 -2z" class="svg-elem-45"></path>
<path d="M2060 865 c0 -10 53 -85 57 -81 6 6 -40 86 -49 86 -5 0 -8 -2 -8 -5z" class="svg-elem-46"></path>
<path d="M503 745 c-35 -15 -43 -47 -23 -85 11 -21 81 -64 120 -74 14 -4 0 6
-30 22 -68 35 -100 84 -73 114 9 10 30 22 47 27 20 6 24 9 11 10 -11 0 -35 -6
-52 -14z" class="svg-elem-47"></path>
<path d="M792 602 c-2 -65 1 -75 23 -97 35 -36 52 -31 21 6 -28 33 -34 51 -39
119 -2 30 -4 20 -5 -28z" class="svg-elem-48"></path>
<path d="M895 548 c-7 -69 -32 -139 -55 -153 -14 -8 6 -35 25 -35 14 0 75 68
75 84 0 5 -7 14 -16 20 -23 17 -9 108 19 125 19 13 20 12 14 -50 -3 -35 -1
-92 5 -126 10 -56 14 -63 35 -63 28 0 29 12 8 155 -8 55 -15 103 -15 108 0 4
-20 7 -44 7 l-44 0 -7 -72z" class="svg-elem-49"></path>
<path d="M2234 506 c-3 -8 -4 -25 -2 -38 3 -21 4 -20 15 9 12 32 -1 60 -13 29z" class="svg-elem-50"></path>
<path d="M1968 403 c-31 -8 -19 -23 17 -23 24 0 35 5 35 15 0 15 -17 17 -52 8z" class="svg-elem-51"></path>
<path d="M806 342 c-3 -5 8 -22 24 -37 35 -33 43 -13 10 23 -23 24 -26 26 -34
14z" class="svg-elem-52"></path>
<path d="M1007 303 c-15 -15 -5 -23 28 -23 39 0 47 14 13 24 -29 7 -33 7 -41
-1z" class="svg-elem-53"></path>
</g>
</svg>
