<svg width="40" height="40" viewBox="0 0 40 40" fill="none" xmlns="http://www.w3.org/2000/svg">
<path d="M25.6265 16C26.1933 16 26.7235 16.1172 27.2171 16.3516C27.7108 16.5859 28.1465 16.9074 28.5243 17.3158C28.9022 17.7243 29.1947 18.1998 29.4019 18.7422C29.6091 19.2846 29.7158 19.8705 29.7219 20.5C29.7219 21.1228 29.6152 21.7054 29.4019 22.2478C29.1886 22.7902 28.8961 23.269 28.5243 23.6842C28.1526 24.0993 27.7199 24.4208 27.2262 24.6484C26.7326 24.8761 26.1993 24.9933 25.6265 25C25.0109 25 24.4137 24.8761 23.8347 24.6283C23.2558 24.3806 22.7438 24.0156 22.299 23.5335C21.9699 23.1786 21.6469 22.827 21.33 22.4788C21.013 22.1306 20.69 21.7723 20.3609 21.404L19.4011 22.4587L18.4321 23.5234C17.9933 24.0056 17.4814 24.3705 16.8963 24.6183C16.3112 24.8661 15.7109 24.9933 15.0954 25C14.5286 25 13.9984 24.8828 13.5048 24.6484C13.0111 24.4141 12.5754 24.0926 12.1975 23.6842C11.8197 23.2757 11.5272 22.8002 11.32 22.2578C11.1127 21.7154 11.0061 21.1295 11 20.5C11 19.8772 11.1067 19.2946 11.32 18.7522C11.5333 18.2098 11.8258 17.731 12.1975 17.3158C12.5693 16.9007 13.002 16.5792 13.4956 16.3516C13.9893 16.1239 14.5225 16.0067 15.0954 16C15.7109 16 16.3082 16.1239 16.8872 16.3717C17.4661 16.6194 17.978 16.9844 18.4229 17.4665C18.752 17.8214 19.075 18.173 19.3919 18.5212C19.7088 18.8694 20.0319 19.2277 20.3609 19.596L21.3208 18.5413L22.2898 17.4766C22.7286 16.9944 23.2405 16.6295 23.8256 16.3817C24.4107 16.1339 25.0109 16.0067 25.6265 16ZM15.1503 23.6842C15.3697 23.6842 15.5921 23.6607 15.8176 23.6138C16.0431 23.567 16.2625 23.5 16.4758 23.4129C16.6891 23.3259 16.8933 23.2121 17.0883 23.0714C17.2833 22.9308 17.46 22.7768 17.6185 22.6094C17.9415 22.2545 18.2584 21.9029 18.5692 21.5547C18.88 21.2065 19.2 20.8549 19.5291 20.5L18.5692 19.4453C18.2523 19.0971 17.9323 18.7422 17.6093 18.3806C17.2802 18.019 16.8933 17.7478 16.4484 17.567C16.0035 17.3862 15.5525 17.2924 15.0954 17.2857C14.6932 17.2857 14.3153 17.3694 13.9619 17.5368C13.6084 17.7042 13.2976 17.9319 13.0294 18.2199C12.7613 18.5078 12.551 18.8493 12.3987 19.2444C12.2463 19.6395 12.1701 20.058 12.1701 20.5C12.1701 20.9621 12.2463 21.3873 12.3987 21.7757C12.551 22.1641 12.7643 22.4989 13.0386 22.7801C13.3128 23.0614 13.6267 23.2824 13.9801 23.4431C14.3336 23.6038 14.7237 23.6842 15.1503 23.6842ZM25.5716 23.6842C25.986 23.6842 26.373 23.6071 26.7326 23.4531C27.0922 23.2991 27.4091 23.0781 27.6833 22.7902C27.9576 22.5022 28.1678 22.1641 28.3141 21.7757C28.4604 21.3873 28.5396 20.9621 28.5518 20.5C28.5518 20.0379 28.4756 19.6127 28.3232 19.2243C28.1709 18.8359 27.9576 18.5011 27.6833 18.2199C27.4091 17.9386 27.0952 17.7176 26.7417 17.5569C26.3883 17.3962 25.9982 17.3158 25.5716 17.3158C25.3522 17.3158 25.1298 17.3393 24.9043 17.3862C24.6788 17.433 24.4594 17.5 24.2461 17.5871C24.0328 17.6741 23.8286 17.7879 23.6336 17.9286C23.4386 18.0692 23.2619 18.2232 23.1034 18.3906C22.7804 18.7455 22.4635 19.0971 22.1527 19.4453C21.8419 19.7935 21.5219 20.1451 21.1928 20.5L22.1527 21.5547C22.4696 21.9029 22.7896 22.2578 23.1126 22.6194C23.2649 22.7935 23.4386 22.9442 23.6336 23.0714C23.8286 23.1987 24.0328 23.3092 24.2461 23.4029C24.4594 23.4967 24.6788 23.567 24.9043 23.6138C25.1298 23.6607 25.3522 23.6842 25.5716 23.6842Z" fill="black"/>
</svg>
