<svg width="40" height="40" viewBox="0 0 40 40" fill="none" xmlns="http://www.w3.org/2000/svg">
<path fill-rule="evenodd" clip-rule="evenodd" d="M15.3761 8.5991C16.4052 7.91075 17.5554 7.91274 18.3136 8.12535C18.7124 8.23719 18.945 8.65117 18.8332 9.05C18.7214 9.44883 18.3074 9.68148 17.9086 9.56964C17.478 9.44891 16.8006 9.4509 16.2101 9.84589C15.6436 10.2248 15.0111 11.065 14.8463 12.9141C14.4884 16.9281 13.5062 25.2735 13.0607 28.9379L13.0595 28.9478L13.058 28.9577C12.9652 29.5824 12.6402 30.47 11.9386 31.1579C11.2036 31.8787 10.1087 32.3247 8.63145 32.088C8.22245 32.0224 7.94402 31.6378 8.00956 31.2288C8.0751 30.8198 8.45978 30.5413 8.86878 30.6069C9.88781 30.7702 10.5016 30.4662 10.8884 30.0869C11.3053 29.6781 11.5152 29.1213 11.573 28.7462C12.0196 25.0718 12.9972 16.763 13.3522 12.7809C13.5439 10.6299 14.323 9.30353 15.3761 8.5991Z" fill="black"/>
<path fill-rule="evenodd" clip-rule="evenodd" d="M19.2285 15.0757H20.7285V16.159H20.3118V16.5757H19.2285V15.0757ZM19.2285 26.5757V28.0757H20.7285V26.9924H20.3118V26.5757H19.2285ZM30.7285 28.0757H32.2285V26.5757H31.1452V26.9924H30.7285V28.0757ZM32.2285 16.5757V15.0757H30.7285V16.159H31.1452V16.5757H32.2285ZM22.4785 15.0757V16.5757H24.6452V15.0757H22.4785ZM26.8118 15.0757V16.5757H28.9785V15.0757H26.8118ZM32.2285 18.3257H30.7285V20.4923H32.2285V18.3257ZM32.2285 22.659H30.7285V24.8257H32.2285V22.659ZM28.9785 28.0757V26.5757H26.8118V28.0757H28.9785ZM24.6452 28.0757V26.5757H22.4785V28.0757H24.6452ZM19.2285 24.8257H20.7285V22.659H19.2285V24.8257ZM19.2285 20.4924H20.7285V18.3257H19.2285V20.4924Z" fill="black"/>
</svg>
