<svg width="40" height="40" viewBox="0 0 40 40" fill="none" xmlns="http://www.w3.org/2000/svg">
<path d="M9.49561 21.3242H8.0542V8H9.49561V21.3242Z" fill="black"/>
<path d="M13.4135 10.0391C13.1557 10.0391 12.936 9.95117 12.7543 9.77539C12.5727 9.59961 12.4819 9.37695 12.4819 9.10742C12.4819 8.83789 12.5727 8.61523 12.7543 8.43945C12.936 8.25781 13.1557 8.16699 13.4135 8.16699C13.6772 8.16699 13.8998 8.25781 14.0815 8.43945C14.269 8.61523 14.3627 8.83789 14.3627 9.10742C14.3627 9.36523 14.269 9.58496 14.0815 9.7666C13.8998 9.94824 13.6772 10.0391 13.4135 10.0391ZM14.1166 21.3242H12.6752V12.3242H14.1166V21.3242Z" fill="black"/>
<path d="M30.0755 21.3242H28.6341V16.1562C28.6341 15.1602 28.4788 14.4395 28.1683 13.9941C27.8636 13.5488 27.348 13.3262 26.6214 13.3262C26.0062 13.3262 25.4818 13.6074 25.0482 14.1699C24.6204 14.7324 24.4066 15.4062 24.4066 16.1914V21.3242H22.9652V15.9805C22.9652 14.2109 22.2825 13.3262 20.9173 13.3262C20.2845 13.3262 19.763 13.5928 19.3529 14.126C18.9427 14.6533 18.7376 15.3418 18.7376 16.1914V21.3242H17.2962V12.3242H18.7376V13.748H18.7728C19.4115 12.6582 20.3431 12.1133 21.5677 12.1133C22.1829 12.1133 22.7191 12.2861 23.1761 12.6318C23.6331 12.9717 23.9466 13.4199 24.1165 13.9766C24.7845 12.7344 25.7806 12.1133 27.1048 12.1133C29.0853 12.1133 30.0755 13.335 30.0755 15.7783V21.3242Z" fill="black"/>
<path fill-rule="evenodd" clip-rule="evenodd" d="M8 24.0312H9.5V25.0312H9V25.5312H8V24.0312ZM8 30.5312V32.0312H9.5V31.0312H9V30.5312H8ZM14.5 32.0312H16V30.5312H15V31.0312H14.5V32.0312ZM16 25.5312V24.0312H14.5V25.0312H15V25.5312H16ZM11 24.0312V25.5312H13V24.0312H11ZM16 27.0312H14.5V29.0312H16V27.0312ZM13 32.0312V30.5312H11V32.0312H13ZM8 29.0312H9.5V27.0312H8V29.0312Z" fill="black"/>
<path fill-rule="evenodd" clip-rule="evenodd" d="M22.0591 24.062H23.5591V25.062H23.0591V25.562H22.0591V24.062ZM22.0591 30.562V32.062H23.5591V31.062H23.0591V30.562H22.0591ZM28.5591 32.062H30.0591V30.562H29.0591V31.062H28.5591V32.062ZM30.0591 25.562V24.062H28.5591V25.062H29.0591V25.562H30.0591ZM25.0591 24.062V25.562H27.0591V24.062H25.0591ZM30.0591 27.062H28.5591V29.062H30.0591V27.062ZM27.0591 32.062V30.562H25.0591V32.062H27.0591ZM22.0591 29.062H23.5591V27.062H22.0591V29.062Z" fill="black"/>
<path fill-rule="evenodd" clip-rule="evenodd" d="M19.2458 26.9336L20.6776 28.3655C20.7655 28.4533 20.7655 28.5958 20.6776 28.6837L19.2458 30.1156C19.1579 30.2034 19.0154 30.2034 18.9276 30.1156C18.8397 30.0277 18.8397 29.8852 18.9276 29.7974L19.9754 28.7496H17.3091V28.2996H19.9754L18.9276 27.2518C18.8397 27.1639 18.8397 27.0214 18.9276 26.9336C19.0154 26.8457 19.1579 26.8457 19.2458 26.9336Z" fill="black"/>
<path d="M35.4353 24.08C35.4353 24.0427 35.4051 24.0125 35.3678 24.0125H33.7553V22.4C33.7553 22.3627 33.7251 22.3325 33.6878 22.3325H33.4478C33.4105 22.3325 33.3803 22.3627 33.3803 22.4V24.0125H31.7678C31.7305 24.0125 31.7003 24.0427 31.7003 24.08V24.32C31.7003 24.3573 31.7305 24.3875 31.7678 24.3875H33.3803V26C33.3803 26.0373 33.4105 26.0675 33.4478 26.0675H33.6878C33.7251 26.0675 33.7553 26.0373 33.7553 26V24.3875H35.3678C35.4051 24.3875 35.4353 24.3573 35.4353 24.32V24.08Z" fill="black" stroke="black" stroke-width="0.135" stroke-linejoin="round"/>
</svg>
