<svg width="40" height="40" viewBox="0 0 40 40" fill="none" xmlns="http://www.w3.org/2000/svg">
<path d="M9.66699 21.3242H8.22559V8H9.66699V21.3242Z" fill="black"/>
<path d="M13.5849 10.0391C13.3271 10.0391 13.1073 9.95117 12.9257 9.77539C12.7441 9.59961 12.6532 9.37695 12.6532 9.10742C12.6532 8.83789 12.7441 8.61523 12.9257 8.43945C13.1073 8.25781 13.3271 8.16699 13.5849 8.16699C13.8485 8.16699 14.0712 8.25781 14.2528 8.43945C14.4403 8.61523 14.5341 8.83789 14.5341 9.10742C14.5341 9.36523 14.4403 9.58496 14.2528 9.7666C14.0712 9.94824 13.8485 10.0391 13.5849 10.0391ZM14.288 21.3242H12.8466V12.3242H14.288V21.3242Z" fill="black"/>
<path d="M30.2469 21.3242H28.8055V16.1562C28.8055 15.1602 28.6502 14.4395 28.3397 13.9941C28.035 13.5488 27.5194 13.3262 26.7928 13.3262C26.1776 13.3262 25.6532 13.6074 25.2196 14.1699C24.7918 14.7324 24.578 15.4062 24.578 16.1914V21.3242H23.1366V15.9805C23.1366 14.2109 22.4539 13.3262 21.0887 13.3262C20.4559 13.3262 19.9344 13.5928 19.5242 14.126C19.1141 14.6533 18.909 15.3418 18.909 16.1914V21.3242H17.4676V12.3242H18.909V13.748H18.9442C19.5828 12.6582 20.5145 12.1133 21.7391 12.1133C22.3543 12.1133 22.8905 12.2861 23.3475 12.6318C23.8045 12.9717 24.118 13.4199 24.2879 13.9766C24.9559 12.7344 25.952 12.1133 27.2762 12.1133C29.2567 12.1133 30.2469 13.335 30.2469 15.7783V21.3242Z" fill="black"/>
<path d="M35.539 24.0875H31.939V24.2V24.3125H35.539V24.2V24.0875Z" fill="black" stroke="black" stroke-width="0.225"/>
<path fill-rule="evenodd" clip-rule="evenodd" d="M8 24.0464H9.5V25.0464H9V25.5464H8V24.0464ZM8 30.5464V32.0464H9.5V31.0464H9V30.5464H8ZM14.5 32.0464H16V30.5464H15V31.0464H14.5V32.0464ZM16 25.5464V24.0464H14.5V25.0464H15V25.5464H16ZM11 24.0464V25.5464H13V24.0464H11ZM16 27.0464H14.5V29.0464H16V27.0464ZM13 32.0464V30.5464H11V32.0464H13ZM8 29.0464H9.5V27.0464H8V29.0464Z" fill="black"/>
<path fill-rule="evenodd" clip-rule="evenodd" d="M22.0591 24.0771H23.5591V25.0771H23.0591V25.5771H22.0591V24.0771ZM22.0591 30.5771V32.0771H23.5591V31.0771H23.0591V30.5771H22.0591ZM28.5591 32.0771H30.0591V30.5771H29.0591V31.0771H28.5591V32.0771ZM30.0591 25.5771V24.0771H28.5591V25.0771H29.0591V25.5771H30.0591ZM25.0591 24.0771V25.5771H27.0591V24.0771H25.0591ZM30.0591 27.0771H28.5591V29.0771H30.0591V27.0771ZM27.0591 32.0771V30.5771H25.0591V32.0771H27.0591ZM22.0591 29.0771H23.5591V27.0771H22.0591V29.0771Z" fill="black"/>
<path fill-rule="evenodd" clip-rule="evenodd" d="M19.3312 26.9409L20.7631 28.3728C20.851 28.4607 20.851 28.6031 20.7631 28.691L19.3312 30.1229C19.2433 30.2107 19.1009 30.2107 19.013 30.1229C18.9251 30.035 18.9251 29.8926 19.013 29.8047L20.0608 28.7569H17.3945V28.3069H20.0608L19.013 27.2591C18.9251 27.1712 18.9251 27.0288 19.013 26.9409C19.1009 26.853 19.2433 26.853 19.3312 26.9409Z" fill="black"/>
</svg>
