<svg width="40" height="40" viewBox="0 0 40 40" fill="none" xmlns="http://www.w3.org/2000/svg">
<path d="M9.94141 25.3242H8.5V12H9.94141V25.3242Z" fill="black"/>
<path d="M16.9348 25.5352C15.6047 25.5352 14.5412 25.1162 13.7443 24.2783C12.9533 23.4346 12.5578 22.3184 12.5578 20.9297C12.5578 19.418 12.9709 18.2373 13.7971 17.3877C14.6232 16.5381 15.7394 16.1133 17.1457 16.1133C18.4875 16.1133 19.5334 16.5264 20.2834 17.3525C21.0393 18.1787 21.4172 19.3242 21.4172 20.7891C21.4172 22.2246 21.01 23.376 20.1955 24.2432C19.3869 25.1045 18.3 25.5352 16.9348 25.5352ZM17.0402 17.3262C16.1144 17.3262 15.382 17.6426 14.843 18.2754C14.3039 18.9023 14.0344 19.7695 14.0344 20.877C14.0344 21.9434 14.3068 22.7842 14.8518 23.3994C15.3967 24.0146 16.1262 24.3223 17.0402 24.3223C17.9719 24.3223 18.6867 24.0205 19.1848 23.417C19.6887 22.8135 19.9406 21.9551 19.9406 20.8418C19.9406 19.7168 19.6887 18.8496 19.1848 18.2402C18.6867 17.6309 17.9719 17.3262 17.0402 17.3262Z" fill="black"/>
<path d="M31.7152 24.6035C31.7152 27.9082 30.1332 29.5605 26.9691 29.5605C25.8558 29.5605 24.8832 29.3496 24.0512 28.9277V27.4863C25.0648 28.0488 26.0316 28.3301 26.9516 28.3301C29.1664 28.3301 30.2738 27.1523 30.2738 24.7969V23.8125H30.2387C29.5531 24.9609 28.5219 25.5352 27.1449 25.5352C26.0258 25.5352 25.1234 25.1367 24.4379 24.3398C23.7582 23.5371 23.4183 22.4619 23.4183 21.1143C23.4183 19.585 23.7846 18.3691 24.517 17.4668C25.2553 16.5645 26.2631 16.1133 27.5404 16.1133C28.7533 16.1133 29.6527 16.5996 30.2387 17.5723H30.2738V16.3242H31.7152V24.6035ZM30.2738 21.2549V19.9277C30.2738 19.2129 30.0307 18.6006 29.5443 18.0908C29.0639 17.5811 28.4633 17.3262 27.7426 17.3262C26.8519 17.3262 26.1547 17.6514 25.6508 18.3018C25.1469 18.9463 24.8949 19.8516 24.8949 21.0176C24.8949 22.0195 25.1351 22.8223 25.6156 23.4258C26.1019 24.0234 26.7435 24.3223 27.5404 24.3223C28.349 24.3223 29.0053 24.0352 29.5092 23.4609C30.0189 22.8867 30.2738 22.1514 30.2738 21.2549Z" fill="black"/>
</svg>
