<svg width="40" height="40" viewBox="0 0 40 40" fill="none" xmlns="http://www.w3.org/2000/svg">
<path d="M5.94141 25.3242H4.5V12H5.94141V25.3242Z" fill="black"/>
<path d="M12.9348 25.5352C11.6047 25.5352 10.5412 25.1162 9.74433 24.2783C8.95332 23.4346 8.55781 22.3184 8.55781 20.9297C8.55781 19.418 8.97089 18.2373 9.79707 17.3877C10.6232 16.5381 11.7394 16.1133 13.1457 16.1133C14.4875 16.1133 15.5334 16.5264 16.2834 17.3525C17.0393 18.1787 17.4172 19.3242 17.4172 20.7891C17.4172 22.2246 17.01 23.376 16.1955 24.2432C15.3869 25.1045 14.3 25.5352 12.9348 25.5352ZM13.0402 17.3262C12.1144 17.3262 11.382 17.6426 10.843 18.2754C10.3039 18.9023 10.0344 19.7695 10.0344 20.877C10.0344 21.9434 10.3068 22.7842 10.8518 23.3994C11.3967 24.0146 12.1262 24.3223 13.0402 24.3223C13.9719 24.3223 14.6867 24.0205 15.1848 23.417C15.6887 22.8135 15.9406 21.9551 15.9406 20.8418C15.9406 19.7168 15.6887 18.8496 15.1848 18.2402C14.6867 17.6309 13.9719 17.3262 13.0402 17.3262Z" fill="black"/>
<path d="M27.7152 24.6035C27.7152 27.9082 26.1332 29.5605 22.9691 29.5605C21.8558 29.5605 20.8832 29.3496 20.0512 28.9277V27.4863C21.0648 28.0488 22.0316 28.3301 22.9516 28.3301C25.1664 28.3301 26.2738 27.1523 26.2738 24.7969V23.8125H26.2387C25.5531 24.9609 24.5219 25.5352 23.1449 25.5352C22.0258 25.5352 21.1234 25.1367 20.4379 24.3398C19.7582 23.5371 19.4183 22.4619 19.4183 21.1143C19.4183 19.585 19.7846 18.3691 20.517 17.4668C21.2553 16.5645 22.2631 16.1133 23.5404 16.1133C24.7533 16.1133 25.6527 16.5996 26.2387 17.5723H26.2738V16.3242H27.7152V24.6035ZM26.2738 21.2549V19.9277C26.2738 19.2129 26.0307 18.6006 25.5443 18.0908C25.0639 17.5811 24.4633 17.3262 23.7426 17.3262C22.8519 17.3262 22.1547 17.6514 21.6508 18.3018C21.1469 18.9463 20.8949 19.8516 20.8949 21.0176C20.8949 22.0195 21.1351 22.8223 21.6156 23.4258C22.1019 24.0234 22.7435 24.3223 23.5404 24.3223C24.349 24.3223 25.0053 24.0352 25.5092 23.4609C26.0189 22.8867 26.2738 22.1514 26.2738 21.2549Z" fill="black"/>
<path fill-rule="evenodd" clip-rule="evenodd" d="M29.4827 23.7803H30.9827V24.6553H30.3577V25.2803H29.4827V23.7803ZM29.4827 29.2803V30.7803H30.9827V29.9053H30.3577V29.2803H29.4827ZM34.9827 30.7803H36.4827V29.2803H35.6077V29.9053H34.9827V30.7803ZM36.4827 25.2803V23.7803H34.9827V24.6553H35.6077V25.2803H36.4827ZM32.1077 23.7803V25.2803H33.8577V23.7803H32.1077ZM36.4827 26.4053H34.9827V28.1553H36.4827V26.4053ZM33.8577 30.7803V29.2803H32.1077V30.7803H33.8577ZM29.4827 28.1553H30.9827V26.4053H29.4827V28.1553Z" fill="black"/>
</svg>
