<svg width="24" height="24" viewBox="0 0 24 24" fill="none" xmlns="http://www.w3.org/2000/svg">
<path fill-rule="evenodd" clip-rule="evenodd" d="M10.6671 8.00292H8.00048V10.6696H10.6671V8.00292ZM7.00049 7.00293V11.6696H11.6671V7.00293H7.00049Z" fill="black"/>
<path fill-rule="evenodd" clip-rule="evenodd" d="M16.6664 8.00292H13.9998V10.6696H16.6664V8.00292ZM12.9998 7.00293V11.6696H17.6664V7.00293H12.9998Z" fill="black"/>
<path fill-rule="evenodd" clip-rule="evenodd" d="M10.6671 14.0029H8.00048V16.6696H10.6671V14.0029ZM7.00049 13.0029V17.6696H11.6671V13.0029H7.00049Z" fill="black"/>
<path fill-rule="evenodd" clip-rule="evenodd" d="M16.6664 14.0029H13.9998V16.6696H16.6664V14.0029ZM12.9998 13.0029V17.6696H17.6664V13.0029H12.9998Z" fill="black"/>
<path fill-rule="evenodd" clip-rule="evenodd" d="M19.666 19.6694L19.666 6L18.666 6L18.666 19.6694L19.666 19.6694Z" fill="black"/>
<path fill-rule="evenodd" clip-rule="evenodd" d="M16.3327 5.99999H19.666V5H16.3327V5.99999Z" fill="black"/>
<path fill-rule="evenodd" clip-rule="evenodd" d="M16.3327 19.6689H19.666V18.6689H16.3327V19.6689Z" fill="black"/>
<path fill-rule="evenodd" clip-rule="evenodd" d="M5 19.6696L5.00001 6.00024L6 6.00024L6 19.6696L5 19.6696Z" fill="black"/>
<path fill-rule="evenodd" clip-rule="evenodd" d="M8.33332 6.00024H5V5.00024H8.33332V6.00024Z" fill="black"/>
<path fill-rule="evenodd" clip-rule="evenodd" d="M8.33332 19.6692H5V18.6692H8.33332V19.6692Z" fill="black"/>
</svg>
