<svg width="40" height="40" viewBox="0 0 40 40" fill="none" xmlns="http://www.w3.org/2000/svg">
<path fill-rule="evenodd" clip-rule="evenodd" d="M10 10H11.5V11.125H11.125V11.5H10V10ZM10 17.5V19H11.5V17.875H11.125V17.5H10ZM17.5 19H19V17.5H17.875V17.875H17.5V19ZM19 11.5V10H17.5V11.125H17.875V11.5H19ZM13.375 10V11.5H15.625V10H13.375ZM19 13.375H17.5V15.625H19V13.375ZM15.625 19V17.5H13.375V19H15.625ZM10 15.625H11.5V13.375H10V15.625Z" fill="black"/>
<path fill-rule="evenodd" clip-rule="evenodd" d="M10 21H11.5V22.125H11.125V22.5H10V21ZM10 28.5V30H11.5V28.875H11.125V28.5H10ZM17.5 30H19V28.5H17.875V28.875H17.5V30ZM19 22.5V21H17.5V22.125H17.875V22.5H19ZM13.375 21V22.5H15.625V21H13.375ZM19 24.375H17.5V26.625H19V24.375ZM15.625 30V28.5H13.375V30H15.625ZM10 26.625H11.5V24.375H10V26.625Z" fill="black"/>
<path fill-rule="evenodd" clip-rule="evenodd" d="M21 10H22.5V11.125H22.125V11.5H21V10ZM21 17.5V19H22.5V17.875H22.125V17.5H21ZM28.5 19H30V17.5H28.875V17.875H28.5V19ZM30 11.5V10H28.5V11.125H28.875V11.5H30ZM24.375 10V11.5H26.625V10H24.375ZM30 13.375H28.5V15.625H30V13.375ZM26.625 19V17.5H24.375V19H26.625ZM21 15.625H22.5V13.375H21V15.625Z" fill="black"/>
<path fill-rule="evenodd" clip-rule="evenodd" d="M21 21H22.5V22.125H22.125V22.5H21V21ZM21 28.5V30H22.5V28.875H22.125V28.5H21ZM28.5 30H30V28.5H28.875V28.875H28.5V30ZM30 22.5V21H28.5V22.125H28.875V22.5H30ZM24.375 21V22.5H26.625V21H24.375ZM30 24.375H28.5V26.625H30V24.375ZM26.625 30V28.5H24.375V30H26.625ZM21 26.625H22.5V24.375H21V26.625Z" fill="black"/>
<path d="M30.1379 6H34V34H30.1379" stroke="black" stroke-linecap="square"/>
<path d="M9.86207 6H6V34H9.86207" stroke="black" stroke-linecap="square"/>
</svg>
