<svg width="40" height="40" viewBox="0 0 40 40" fill="none" xmlns="http://www.w3.org/2000/svg">
<path d="M19.8633 24.9688C18.3854 24.9688 17.2038 24.5033 16.3184 23.5723C15.4395 22.6348 15 21.3945 15 19.8516C15 18.1719 15.459 16.86 16.377 15.916C17.2949 14.972 18.5352 14.5 20.0977 14.5C21.5885 14.5 22.7507 14.959 23.584 15.877C24.4238 16.7949 24.8438 18.0677 24.8438 19.6953C24.8438 21.2904 24.3913 22.5697 23.4863 23.5332C22.5879 24.4902 21.3802 24.9688 19.8633 24.9688ZM19.9805 15.8477C18.9518 15.8477 18.138 16.1992 17.5391 16.9023C16.9401 17.599 16.6406 18.5625 16.6406 19.793C16.6406 20.9779 16.9434 21.9121 17.5488 22.5957C18.1543 23.2793 18.9648 23.6211 19.9805 23.6211C21.0156 23.6211 21.8099 23.2858 22.3633 22.6152C22.9232 21.9447 23.2031 20.9909 23.2031 19.7539C23.2031 18.5039 22.9232 17.5404 22.3633 16.8633C21.8099 16.1862 21.0156 15.8477 19.9805 15.8477Z" fill="black"/>
</svg>
