<svg width="40" height="40" viewBox="0 0 40 40" fill="none" xmlns="http://www.w3.org/2000/svg">
<path d="M16.6406 23.2891H16.6016V29.334H15V14.7344H16.6016V16.4922H16.6406C17.4284 15.1641 18.5807 14.5 20.0977 14.5C21.3867 14.5 22.3926 14.9492 23.1152 15.8477C23.8379 16.7396 24.1992 17.9375 24.1992 19.4414C24.1992 21.1146 23.7923 22.4557 22.9785 23.4648C22.1647 24.4674 21.0514 24.9688 19.6387 24.9688C18.3431 24.9688 17.3438 24.4089 16.6406 23.2891ZM16.6016 19.2559V20.6523C16.6016 21.4792 16.8685 22.1823 17.4023 22.7617C17.9427 23.3346 18.6263 23.6211 19.4531 23.6211C20.4232 23.6211 21.1816 23.25 21.7285 22.5078C22.2819 21.7656 22.5586 20.7337 22.5586 19.4121C22.5586 18.2988 22.3014 17.4264 21.7871 16.7949C21.2728 16.1634 20.5762 15.8477 19.6973 15.8477C18.7663 15.8477 18.0176 16.1732 17.4512 16.8242C16.8848 17.4688 16.6016 18.2793 16.6016 19.2559Z" fill="black"/>
</svg>
