<svg width="40" height="40" viewBox="0 0 40 40" fill="none" xmlns="http://www.w3.org/2000/svg">
<path d="M27.2939 19.353C27.2939 20.332 27.139 21.1912 26.8291 21.9308C26.5192 22.6703 26.0966 23.2901 25.5613 23.7901C25.0331 24.2831 24.4168 24.6564 23.7125 24.91C23.0082 25.1565 22.2617 25.2797 21.4728 25.2797H20.8284V27.4561H19.4761V25.2797H18.8422C17.9619 25.2797 17.1625 25.1389 16.4441 24.8572C15.7257 24.5754 15.1094 24.1775 14.5953 23.6634C14.0882 23.1422 13.6937 22.5189 13.412 21.7934C13.1373 21.068 13 20.258 13 19.3635C13 18.455 13.1479 17.645 13.4437 16.9337C13.7395 16.2223 14.148 15.6237 14.6692 15.1377C15.1974 14.6447 15.8172 14.2714 16.5286 14.0178C17.247 13.7572 18.0252 13.627 18.8634 13.627H19.4761V12H20.8284V13.627H21.4411C22.3286 13.627 23.1315 13.7678 23.8499 14.0495C24.5753 14.3242 25.1916 14.7151 25.6987 15.2222C26.2128 15.7223 26.6072 16.3245 26.8819 17.0288C27.1566 17.7331 27.2939 18.5078 27.2939 19.353ZM25.8888 19.3741C25.8888 18.6839 25.7867 18.0606 25.5825 17.5042C25.3782 16.9407 25.0824 16.4653 24.695 16.0779C24.3147 15.6835 23.8499 15.3807 23.3005 15.1694C22.7512 14.9581 22.1314 14.8525 21.4411 14.8525H20.8284V24.012H21.4728C22.1631 24.012 22.7793 23.9099 23.3216 23.7056C23.871 23.4943 24.3358 23.1915 24.7162 22.7971C25.0965 22.3956 25.3853 21.9096 25.5825 21.3391C25.7867 20.7616 25.8888 20.1066 25.8888 19.3741ZM19.4761 14.8525H18.8634C18.2295 14.8525 17.6414 14.9475 17.0991 15.1377C16.5568 15.3279 16.0849 15.6131 15.6834 15.9934C15.282 16.3738 14.9685 16.8492 14.7432 17.4197C14.5178 17.9831 14.4051 18.6416 14.4051 19.3952C14.4051 20.177 14.5143 20.8567 14.7326 21.4342C14.9509 22.0117 15.2573 22.4942 15.6517 22.8816C16.0461 23.2619 16.5145 23.5471 17.0568 23.7373C17.5991 23.9204 18.1943 24.012 18.8422 24.012H19.4761V14.8525Z" fill="black"/>
</svg>
