<svg width="40" height="40" viewBox="0 0 40 40" fill="none" xmlns="http://www.w3.org/2000/svg">
<path d="M25.543 16.2988H23.375V22.3438C23.375 23.2552 23.7038 23.7109 24.3613 23.7109C24.5827 23.7109 24.8691 23.6491 25.2207 23.5254V24.8926C24.8236 25.0423 24.4264 25.1172 24.0293 25.1172C22.5189 25.1172 21.7637 24.2155 21.7637 22.4121V16.2988H17.9648V22.2656C17.9648 23.5156 17.8607 24.4271 17.6523 25H16.0215C16.2559 24.4336 16.373 23.5221 16.373 22.2656V16.2988C15.5723 16.3184 14.7812 16.6081 14 17.168V15.7031C14.4883 15.2344 15.2858 15 16.3926 15H25.543V16.2988Z" fill="black"/>
</svg>
