<svg width="40" height="40" viewBox="0 0 40 40" fill="none" xmlns="http://www.w3.org/2000/svg">
<path fill-rule="evenodd" clip-rule="evenodd" d="M23 10H24.5V10.875H23.875V11.5H23V10ZM23 15.5V17H24.5V16.125H23.875V15.5H23ZM28.5 17H30V15.5H29.125V16.125H28.5V17ZM30 11.5V10H28.5V10.875H29.125V11.5H30ZM25.625 10V11.5H27.375V10H25.625ZM30 12.625H28.5V14.375H30V12.625ZM27.375 17V15.5H25.625V17H27.375ZM23 14.375H24.5V12.625H23V14.375Z" fill="black"/>
<path fill-rule="evenodd" clip-rule="evenodd" d="M10 17.8159H11.5V18.8159H11V19.3159H10V17.8159ZM10 28.3159V29.8159H11.5V28.8159H11V28.3159H10ZM20.5 29.8159H22V28.3159H21V28.8159H20.5V29.8159ZM22 19.3159V17.8159H20.5V18.8159H21V19.3159H22ZM13 17.8159V19.3159H15V17.8159H13ZM17 17.8159V19.3159H19V17.8159H17ZM22 20.8159H20.5V22.8159H22V20.8159ZM22 24.8159H20.5V26.8159H22V24.8159ZM19 29.8159V28.3159H17V29.8159H19ZM15 29.8159V28.3159H13V29.8159H15ZM10 26.8159H11.5V24.8159H10V26.8159ZM10 22.8159H11.5V20.8159H10V22.8159Z" fill="black"/>
</svg>
