<svg width="40" height="40" viewBox="0 0 40 40" fill="none" xmlns="http://www.w3.org/2000/svg">
<path d="M24.2188 29.334H22.6172V23.0156H22.5781C21.8815 24.3177 20.7422 24.9688 19.1602 24.9688C17.9036 24.9688 16.8945 24.5228 16.1328 23.6309C15.3776 22.7324 15 21.5117 15 19.9688C15 18.3086 15.4167 16.9837 16.25 15.9941C17.0833 14.998 18.2031 14.5 19.6094 14.5C20.9766 14.5 21.9661 15.0404 22.5781 16.1211H22.6172V14.7344H24.2188V29.334ZM22.6172 20.2324V18.7773C22.6172 17.957 22.347 17.2637 21.8066 16.6973C21.2728 16.1309 20.5924 15.8477 19.7656 15.8477C18.8021 15.8477 18.0404 16.2057 17.4805 16.9219C16.9206 17.6315 16.6406 18.6341 16.6406 19.9297C16.6406 21.082 16.9108 21.987 17.4512 22.6445C17.9915 23.2956 18.6882 23.6211 19.541 23.6211C20.4785 23.6211 21.224 23.3021 21.7773 22.6641C22.3372 22.0195 22.6172 21.209 22.6172 20.2324Z" fill="black"/>
</svg>
