<svg width="40" height="40" viewBox="0 0 40 40" fill="none" xmlns="http://www.w3.org/2000/svg">
<path d="M17 24.373V22.6543C17.8724 23.2988 18.8327 23.6211 19.8809 23.6211C21.2871 23.6211 21.9902 23.1523 21.9902 22.2148C21.9902 21.9479 21.9284 21.7233 21.8047 21.541C21.6875 21.3522 21.5247 21.1862 21.3164 21.043C21.1146 20.8997 20.8737 20.7728 20.5938 20.6621C20.3203 20.5449 20.0241 20.4245 19.7051 20.3008C19.2624 20.125 18.8717 19.9492 18.5332 19.7734C18.2012 19.5911 17.9212 19.3893 17.6934 19.168C17.472 18.9401 17.3027 18.6829 17.1855 18.3965C17.0749 18.11 17.0195 17.7747 17.0195 17.3906C17.0195 16.9219 17.127 16.5085 17.3418 16.1504C17.5566 15.7858 17.8431 15.4831 18.2012 15.2422C18.5592 14.9948 18.9661 14.8092 19.4219 14.6855C19.8841 14.5618 20.3594 14.5 20.8477 14.5C21.7135 14.5 22.4883 14.6497 23.1719 14.9492V16.5703C22.4362 16.0885 21.5898 15.8477 20.6328 15.8477C20.3333 15.8477 20.0632 15.8835 19.8223 15.9551C19.5814 16.0202 19.373 16.1146 19.1973 16.2383C19.028 16.362 18.8945 16.5117 18.7969 16.6875C18.7057 16.8568 18.6602 17.0456 18.6602 17.2539C18.6602 17.5143 18.7057 17.7324 18.7969 17.9082C18.8945 18.084 19.0345 18.2402 19.2168 18.377C19.3991 18.5137 19.6204 18.6374 19.8809 18.748C20.1413 18.8587 20.4375 18.9792 20.7695 19.1094C21.2122 19.2786 21.6094 19.4544 21.9609 19.6367C22.3125 19.8125 22.612 20.0143 22.8594 20.2422C23.1068 20.4635 23.2956 20.7207 23.4258 21.0137C23.5625 21.3066 23.6309 21.6549 23.6309 22.0586C23.6309 22.5534 23.5202 22.9831 23.2988 23.3477C23.084 23.7122 22.7943 24.015 22.4297 24.2559C22.0651 24.4967 21.6452 24.6758 21.1699 24.793C20.6947 24.9102 20.1966 24.9688 19.6758 24.9688C18.6471 24.9688 17.7552 24.7702 17 24.373Z" fill="black"/>
</svg>
