<svg width="40" height="40" viewBox="0 0 40 40" fill="none" xmlns="http://www.w3.org/2000/svg">
<path d="M19.8145 27.2148C18.2975 27.2148 17.1159 26.5605 16.2695 25.252C15.4232 23.9434 15 22.1042 15 19.7344C15 17.2409 15.4395 15.3301 16.3184 14.002C17.2038 12.6673 18.4733 12 20.127 12C23.265 12 24.834 14.4967 24.834 19.4902C24.834 21.9512 24.3945 23.8555 23.5156 25.2031C22.6432 26.5443 21.4095 27.2148 19.8145 27.2148ZM23.1738 18.8164C23.0566 15.1836 21.9857 13.3672 19.9609 13.3672C18.9844 13.3672 18.2031 13.862 17.6172 14.8516C17.0312 15.8346 16.7057 17.1562 16.6406 18.8164H23.1738ZM23.1836 20.1055H16.6309C16.6634 21.974 16.9694 23.3997 17.5488 24.3828C18.1283 25.3594 18.929 25.8477 19.9512 25.8477C20.9473 25.8477 21.7253 25.3529 22.2852 24.3633C22.8516 23.3672 23.151 21.9479 23.1836 20.1055Z" fill="black"/>
</svg>
