<svg width="40" height="40" viewBox="0 0 40 40" fill="none" xmlns="http://www.w3.org/2000/svg">
<path d="M26.9844 14.5L23.9863 24.5H22.3262L20.2656 17.3418C20.1875 17.0684 20.1354 16.7591 20.1094 16.4141H20.0703C20.0508 16.6484 19.9824 16.9512 19.8652 17.3223L17.6289 24.5H16.0273L13 14.5H14.6797L16.75 22.0195C16.8151 22.2474 16.8607 22.5469 16.8867 22.918H16.9648C16.9844 22.6315 17.043 22.3255 17.1406 22L19.4453 14.5H20.9102L22.9805 22.0391C23.0456 22.2799 23.0944 22.5794 23.127 22.9375H23.2051C23.2181 22.6836 23.2734 22.3841 23.3711 22.0391L25.4023 14.5H26.9844Z" fill="black"/>
</svg>
